<svg width="99" height="98" viewBox="0 0 99 98" fill="none" xmlns="http://www.w3.org/2000/svg">
<path d="M25.5637 28.7364C24.1895 30.5878 23.846 35.2257 23.783 36.6209C23.6644 38.7368 23.821 40.8591 24.2487 42.9347C24.6648 44.891 25.5217 46.4733 26.5963 47.9601C26.6968 48.1012 26.8359 48.2104 26.9969 48.2745C27.1579 48.3386 27.334 48.3549 27.504 48.3214C27.674 48.288 27.8308 48.2062 27.9555 48.086C28.0802 47.9657 28.1676 47.812 28.2072 47.6433C29.2035 43.9634 30.362 40.6119 32.9253 37.5428C35.1246 34.9359 37.9267 32.905 41.0885 31.6261C43.2911 30.7214 47.1637 29.1773 47.805 26.3964C49.015 21.1592 42.0046 18.5596 38.2618 19.0005C35.7806 19.2944 33.3242 20.0541 31.2457 21.4817C29.0775 22.9704 28.7187 24.0431 28.7492 27.0186C28.7588 27.8393 28.127 28.3089 27.3502 28.0455C26.6154 27.8031 26.0237 28.1085 25.5637 28.7364Z" fill="#6EA8FE"/>
<path d="M47.8043 26.4002C47.1611 29.1811 43.2885 30.7252 41.0878 31.6279C40.6393 31.8188 40.1984 32.0097 39.7632 32.2234C37.2086 30.3391 35.0913 27.9249 33.5564 25.1462C33.1269 24.4099 32.8007 23.6181 32.5868 22.7929C32.4631 22.14 32.3777 21.4804 32.3311 20.8175C34.1747 19.8371 36.1901 19.2215 38.2669 19.0043C42.0021 18.5615 49.0144 21.1629 47.8043 26.4002Z" fill="#0A58CA"/>
<path d="M66.988 20.1174C66.9313 20.3286 66.918 20.5491 66.9489 20.7656C66.9797 20.9821 67.054 21.1901 67.1674 21.3771C69.4577 25.1753 71.7386 28.2348 72.2195 34.77C72.2195 34.77 72.899 45.3208 69.6658 48.2124C69.6658 48.2124 68.2534 49.5656 67.948 48.2124C67.948 48.2124 66.9422 38.0032 50.946 32.0463C50.946 32.0463 34.4383 25.9197 36.1408 16.22C36.1408 16.22 36.7744 9.19245 44.8689 6.77613C49.7531 5.31603 55.0304 6.33524 59.1531 9.33178C62.32 11.6369 65.0055 14.539 67.0586 17.8748C67.1761 18.0632 67.2537 18.2738 67.2865 18.4934C67.3194 18.7131 67.3067 18.9371 67.2495 19.1517L66.988 20.1174Z" fill="#6EA8FE"/>
<path d="M69.6657 48.214C69.6657 48.214 68.6064 49.2256 68.1292 48.6225C69.8699 44.517 69.3927 37.1192 69.3927 37.1192C68.9137 30.586 66.631 27.5245 64.3425 23.7264C64.2294 23.5393 64.1553 23.3312 64.1248 23.1147C64.0943 22.8982 64.108 22.6777 64.165 22.4667L64.4227 21.5009C64.4794 21.2863 64.4917 21.0623 64.4589 20.8428C64.4261 20.6232 64.3488 20.4127 64.2318 20.224C62.1788 16.8894 59.4947 13.9875 56.3301 11.681C52.2056 8.68448 46.9301 7.67291 42.0459 9.12537C40.91 9.45991 39.8201 9.93434 38.8013 10.5378C40.0972 9.05093 42.023 7.6271 44.8764 6.77394C49.7606 5.31575 55.038 6.33305 59.1606 9.32959C62.3234 11.637 65.006 14.5387 67.0585 17.8726C67.1759 18.0614 67.2535 18.2723 67.2863 18.4922C67.3191 18.7122 67.3066 18.9365 67.2493 19.1514L66.9917 20.1172C66.9361 20.3285 66.9234 20.5488 66.9542 20.7651C66.985 20.9814 67.0588 21.1894 67.1711 21.3768C69.4614 25.175 71.7423 28.2345 72.2232 34.7697C72.2118 34.7697 72.8989 45.3206 69.6657 48.214Z" fill="#0A58CA"/>
<path d="M67.8871 77.8052L56.6262 73.0031C56.3142 72.8714 56.0481 72.6504 55.8613 72.3678C55.6745 72.0853 55.5754 71.7538 55.5765 71.4151V69.7489C60.2431 67.4185 63.8752 63.8742 66.3889 59.1866C67.9403 56.2336 69.0276 53.0592 69.6125 49.7751C69.9441 49.6037 70.2499 49.3866 70.521 49.13C74.0883 45.9083 73.5462 35.8288 73.4718 34.6779C73.0194 28.5092 71.0364 25.2836 68.9388 21.871C68.7097 21.4893 68.4769 21.119 68.2459 20.7258C68.2191 20.682 68.2014 20.6332 68.1938 20.5824C68.1863 20.5316 68.1891 20.4797 68.202 20.43L68.4616 19.4757C68.5618 19.0966 68.5838 18.7012 68.5264 18.3134C68.469 17.9255 68.3333 17.5534 68.1276 17.2197C65.9887 13.7418 63.1895 10.7163 59.8881 8.31403C55.4162 5.06937 49.6636 4.04252 44.5141 5.57897C41.2007 6.56955 38.6374 8.38274 36.9025 10.967C36.811 11.1029 36.7472 11.2554 36.7146 11.4159C36.6821 11.5764 36.6815 11.7418 36.7129 11.9026C36.7762 12.2272 36.966 12.5134 37.2403 12.6981C37.5147 12.8829 37.8512 12.9511 38.1758 12.8878C38.5005 12.8244 38.7867 12.6347 38.9714 12.3603C39.895 10.9949 41.131 9.86945 42.5768 9.07748C44.2564 11.6045 47.1461 13.0188 49.9938 14.248C52.4559 15.3111 55.5288 16.6356 56.8324 19.1035C56.9093 19.2486 57.0141 19.3772 57.1407 19.4818C57.2673 19.5864 57.4133 19.6651 57.5704 19.7133C57.7274 19.7615 57.8924 19.7783 58.0559 19.7628C58.2194 19.7472 58.3783 19.6996 58.5234 19.6226C58.6685 19.5457 58.7971 19.4409 58.9017 19.3143C59.0063 19.1877 59.085 19.0417 59.1332 18.8846C59.1814 18.7276 59.1982 18.5626 59.1827 18.3991C59.1671 18.2356 59.1195 18.0767 59.0426 17.9316C57.3248 14.6869 53.6602 13.1104 50.9901 11.9576C48.5585 10.9098 46.2777 9.8123 44.9187 8.06591L45.2222 7.97048C49.6292 6.65353 54.563 7.53913 58.4165 10.3391C61.4514 12.5491 64.0249 15.3312 65.9919 18.529C66.0192 18.5733 66.0372 18.6228 66.0448 18.6743C66.0523 18.7258 66.0493 18.7784 66.0358 18.8287L65.7781 19.7944C65.681 20.1684 65.6598 20.558 65.7159 20.9402C65.7719 21.3225 65.9041 21.6896 66.1045 22.0199C66.3411 22.4016 66.5759 22.7948 66.8107 23.1765C68.83 26.4613 70.5726 29.2975 70.981 34.8497C71.2215 38.581 70.8875 45.0723 69.017 47.1088C68.3357 44.2726 65.1998 36.0216 51.3871 30.8854C51.2401 30.8301 36.7212 25.3313 37.288 17.1624C37.2826 16.8501 37.1603 16.5511 36.9452 16.3246C36.7301 16.0981 36.4378 15.9604 36.1262 15.9388C35.8145 15.9173 35.5061 16.0133 35.2619 16.2081C35.0176 16.4028 34.8552 16.682 34.8068 16.9906C34.7736 17.477 34.7787 17.9652 34.8221 18.4507C33.3059 18.8956 31.8676 19.5723 30.5582 20.4567C28.245 22.0409 27.6189 23.3884 27.5254 25.9517V25.9765C27.5261 25.9898 27.5261 26.0032 27.5254 26.0165C27.5254 26.2685 27.5139 26.53 27.5254 26.8067C26.4184 26.5338 25.3591 26.9613 24.5861 28.0015C23.9505 28.8566 22.8435 31.1068 22.5611 36.5636C22.4367 38.7883 22.6022 41.0198 23.0535 43.2018C23.4562 45.0914 24.2674 46.8378 25.6091 48.6968C25.8357 49.0123 26.1438 49.2604 26.5005 49.4144C27.136 53.0141 28.2335 56.295 29.789 59.1942C32.3008 63.8799 35.931 67.4242 40.5957 69.7546V71.4247C40.5964 71.7631 40.4971 72.0941 40.3104 72.3763C40.1236 72.6584 39.8577 72.8792 39.5459 73.0107L28.2755 77.8129C26.9204 78.3888 25.7649 79.351 24.9531 80.5793C24.1412 81.8076 23.7089 83.2478 23.7101 84.7202V88.9192C23.7101 89.2502 23.8416 89.5677 24.0757 89.8018C24.3097 90.0359 24.6272 90.1674 24.9583 90.1674H71.2062C71.3701 90.1674 71.5323 90.1351 71.6836 90.0723C71.835 90.0096 71.9724 89.9176 72.0882 89.8017C72.204 89.6857 72.2957 89.5481 72.3582 89.3967C72.4208 89.2453 72.4528 89.083 72.4526 88.9192V84.7202C72.4552 83.2465 72.0236 81.8047 71.2117 80.5749C70.3997 79.345 69.2434 78.3817 67.8871 77.8052ZM31.961 58.007C30.4616 55.1482 29.4306 52.0674 28.9072 48.8819C29.1427 48.6214 29.3128 48.3087 29.4035 47.9696C30.333 44.534 31.3369 41.7322 33.2207 39.1803C33.3914 38.9137 33.4541 38.5921 33.3962 38.2808C33.3384 37.9696 33.1642 37.692 32.9092 37.5045C32.6541 37.317 32.3373 37.2335 32.0229 37.2711C31.7086 37.3087 31.4203 37.4645 31.2167 37.7069C29.2374 40.3923 28.1457 43.2419 27.1914 46.6373C26.367 45.4434 25.7836 44.1001 25.4736 42.6827C25.0663 40.7134 24.918 38.6992 25.0327 36.6915C25.2045 33.338 25.8076 30.5094 26.5596 29.4864C26.7829 29.1849 26.8593 29.2097 26.9414 29.2402C27.1474 29.3102 27.3617 29.3532 27.5788 29.3681C27.659 30.895 27.8193 32.6318 28.14 33.9488C28.2055 34.2205 28.3604 34.4623 28.5798 34.6354C28.7993 34.8085 29.0706 34.9028 29.35 34.9031C29.4491 34.9033 29.5479 34.8911 29.644 34.8668C29.8032 34.8283 29.9532 34.7588 30.0856 34.6623C30.2179 34.5657 30.3299 34.4441 30.4152 34.3042C30.5004 34.1643 30.5573 34.009 30.5825 33.8472C30.6077 33.6853 30.6007 33.5201 30.562 33.3609C29.9398 30.8015 29.9894 26.0566 29.9894 26.0089V25.9898C30.0543 24.1136 30.4513 23.5334 31.9381 22.5161C32.9873 21.8098 34.1354 21.2631 35.345 20.8938C36.6448 24.4553 39.8895 27.3259 43.0502 29.3986C42.2046 29.8243 41.3629 30.1621 40.714 30.4369L40.5995 30.4827C38.8003 31.219 37.102 32.1811 35.5454 33.3457C35.2953 33.5494 35.1337 33.842 35.0946 34.1622C35.0554 34.4825 35.1418 34.8054 35.3356 35.0633C35.5293 35.3213 35.8154 35.4942 36.1339 35.5458C36.4523 35.5974 36.7784 35.5237 37.0437 35.3402C38.4302 34.3026 39.9432 33.4457 41.5462 32.7903L41.6607 32.7425C42.7639 32.2902 44.1992 31.7004 45.5161 30.8835C47.1204 31.7774 48.785 32.5586 50.4976 33.2216C54.834 34.8363 60.7508 37.8309 64.3027 42.9289C66.4022 45.9521 66.6923 48.3265 66.6942 48.3418C66.6996 48.3925 66.7078 48.4428 66.719 48.4925C66.7841 48.8189 66.9225 49.1263 67.1237 49.3915C66.5838 52.4001 65.5861 55.3083 64.1653 58.0147C61.5753 62.8454 57.676 66.3287 52.5494 68.3709C49.6648 69.5255 46.4463 69.5255 43.5617 68.3709C38.4599 66.3229 34.5511 62.8378 31.961 58.007ZM69.958 87.6614H26.1798V84.7125C26.1793 83.7289 26.4687 82.7669 27.0118 81.9467C27.555 81.1266 28.3278 80.4847 29.2336 80.1013L40.4983 75.3068C41.2602 74.9833 41.9099 74.4427 42.3664 73.7523C42.8229 73.0619 43.066 72.2524 43.0654 71.4247V70.8426C46.2955 72.0295 49.8423 72.0295 53.0724 70.8426V71.4151C53.0697 72.2442 53.3117 73.0557 53.768 73.7479C54.2242 74.4401 54.8746 74.9824 55.6376 75.3068L66.9099 80.1108C67.8158 80.4943 68.5886 81.1361 69.1317 81.9563C69.6748 82.7764 69.9642 83.7384 69.9637 84.7221L69.958 87.6614Z" fill="#0A58CA"/>
<path d="M38.4731 48.9067C38.4731 49.9135 38.8731 50.8791 39.585 51.591C40.297 52.303 41.2625 52.7029 42.2694 52.7029C43.2762 52.7029 44.2418 52.303 44.9537 51.591C45.6657 50.8791 46.0656 49.9135 46.0656 48.9067C46.0722 48.7388 46.0448 48.5713 45.9851 48.4142C45.9254 48.2571 45.8345 48.1138 45.7181 47.9926C45.6016 47.8715 45.4619 47.7752 45.3073 47.7094C45.1527 47.6435 44.9864 47.6096 44.8184 47.6096C44.6503 47.6096 44.484 47.6435 44.3294 47.7094C44.1748 47.7752 44.0351 47.8715 43.9186 47.9926C43.8022 48.1138 43.7113 48.2571 43.6516 48.4142C43.5919 48.5713 43.5645 48.7388 43.5711 48.9067C43.5711 49.0776 43.5374 49.2469 43.472 49.4048C43.4066 49.5627 43.3107 49.7062 43.1898 49.8271C43.0689 49.948 42.9254 50.0438 42.7675 50.1093C42.6096 50.1747 42.4403 50.2083 42.2694 50.2083C42.0984 50.2083 41.9292 50.1747 41.7712 50.1093C41.6133 50.0438 41.4698 49.948 41.349 49.8271C41.2281 49.7062 41.1322 49.5627 41.0668 49.4048C41.0014 49.2469 40.9677 49.0776 40.9677 48.9067C40.9743 48.7388 40.9469 48.5713 40.8871 48.4142C40.8274 48.2571 40.7366 48.1138 40.6201 47.9926C40.5037 47.8715 40.3639 47.7752 40.2093 47.7094C40.0547 47.6435 39.8884 47.6096 39.7204 47.6096C39.5524 47.6096 39.3861 47.6435 39.2315 47.7094C39.0769 47.7752 38.9372 47.8715 38.8207 47.9926C38.7042 48.1138 38.6134 48.2571 38.5537 48.4142C38.494 48.5713 38.4666 48.7388 38.4731 48.9067Z" fill="#0A58CA"/>
<path d="M53.8734 52.703C54.8798 52.7015 55.8445 52.3011 56.5561 51.5895C57.2677 50.8779 57.6681 49.9131 57.6697 48.9068C57.6762 48.7389 57.6488 48.5714 57.5891 48.4143C57.5294 48.2573 57.4386 48.1139 57.3221 47.9928C57.2056 47.8717 57.0659 47.7753 56.9113 47.7095C56.7567 47.6437 56.5904 47.6097 56.4224 47.6097C56.2543 47.6097 56.088 47.6437 55.9334 47.7095C55.7788 47.7753 55.6391 47.8717 55.5227 47.9928C55.4062 48.1139 55.3154 48.2573 55.2556 48.4143C55.1959 48.5714 55.1685 48.7389 55.1751 48.9068C55.1622 49.2436 55.0193 49.5624 54.7764 49.7962C54.5335 50.0299 54.2096 50.1605 53.8725 50.1605C53.5354 50.1605 53.2114 50.0299 52.9685 49.7962C52.7256 49.5624 52.5827 49.2436 52.5698 48.9068C52.5698 48.5762 52.4385 48.2592 52.2048 48.0255C51.971 47.7918 51.654 47.6605 51.3235 47.6605C50.9929 47.6605 50.6759 47.7918 50.4422 48.0255C50.2085 48.2592 50.0771 48.5762 50.0771 48.9068C50.0782 49.9133 50.4784 50.8783 51.1902 51.59C51.9019 52.3017 52.8669 52.702 53.8734 52.703Z" fill="#0A58CA"/>
<path d="M41.6054 43.1827C42.1957 43.524 42.7529 43.9195 43.2698 44.3642C43.3935 44.4798 43.5396 44.569 43.699 44.6263C43.8584 44.6836 44.0278 44.7078 44.1969 44.6975C44.366 44.6871 44.5311 44.6424 44.6823 44.566C44.8336 44.4897 44.9676 44.3833 45.0763 44.2534C45.1851 44.1235 45.2662 43.9728 45.3147 43.8105C45.3632 43.6482 45.3782 43.4778 45.3586 43.3095C45.339 43.1412 45.2854 42.9787 45.2009 42.8319C45.1164 42.6851 45.0029 42.557 44.8673 42.4556C44.2325 41.9078 43.5467 41.422 42.8193 41.005C42.6763 40.9252 42.519 40.8743 42.3564 40.8553C42.1937 40.8362 42.0289 40.8494 41.8713 40.8941C41.7138 40.9387 41.5665 41.014 41.4381 41.1156C41.3096 41.2171 41.2024 41.343 41.1226 41.486C41.0427 41.629 40.9918 41.7863 40.9728 41.9489C40.9538 42.1116 40.967 42.2764 41.0116 42.434C41.0563 42.5915 41.1315 42.7387 41.2331 42.8672C41.3347 42.9957 41.4605 43.1029 41.6035 43.1827H41.6054Z" fill="#0A58CA"/>
<path d="M32.4001 48.1204C32.722 48.1197 33.0313 47.9946 33.2632 47.7712C33.4951 47.5478 33.6317 47.2435 33.6445 46.9218C33.6889 46.3298 33.9059 45.7637 34.2686 45.2937C34.3637 45.1604 34.4317 45.0096 34.4685 44.85C34.5054 44.6904 34.5104 44.5251 34.4834 44.3636C34.4564 44.202 34.3978 44.0474 34.311 43.9085C34.2242 43.7696 34.1109 43.6491 33.9776 43.554C33.8442 43.4589 33.6934 43.391 33.5338 43.3541C33.3743 43.3173 33.209 43.3122 33.0474 43.3392C32.8859 43.3663 32.7312 43.4249 32.5923 43.5116C32.4534 43.5984 32.333 43.7117 32.2378 43.8451C31.5901 44.7095 31.2123 45.746 31.1518 46.8244C31.1389 47.1547 31.2578 47.4766 31.4822 47.7193C31.7066 47.962 32.0182 48.1056 32.3485 48.1185L32.4001 48.1204Z" fill="#0A58CA"/>
<path d="M39.7659 41.1804C39.713 40.8537 39.5324 40.5614 39.264 40.3677C38.9956 40.1741 38.6612 40.095 38.3345 40.1479C37.3887 40.3102 36.4726 40.6132 35.6166 41.0468C35.4702 41.1201 35.3397 41.2216 35.2325 41.3453C35.1253 41.4691 35.0436 41.6127 34.9919 41.768C34.9403 41.9234 34.9197 42.0874 34.9314 42.2507C34.9431 42.414 34.9869 42.5734 35.0602 42.7197C35.1335 42.8661 35.235 42.9966 35.3587 43.1038C35.4825 43.211 35.6261 43.2927 35.7814 43.3444C35.9368 43.396 36.1008 43.4166 36.2641 43.4049C36.4274 43.3932 36.5867 43.3494 36.7331 43.2761C37.363 42.9558 38.0372 42.7313 38.7334 42.61C38.8951 42.584 39.0501 42.5264 39.1895 42.4405C39.3289 42.3545 39.45 42.242 39.5459 42.1092C39.6418 41.9764 39.7106 41.8261 39.7484 41.6667C39.7861 41.5073 39.7921 41.3421 39.7659 41.1804Z" fill="#0A58CA"/>
<path d="M57.4029 42.6103C58.0991 42.7313 58.7733 42.9558 59.4031 43.2764C59.5495 43.3498 59.7089 43.3937 59.8723 43.4055C60.0356 43.4174 60.1997 43.3969 60.3551 43.3453C60.5105 43.2938 60.6543 43.2121 60.7781 43.1049C60.902 42.9978 61.0036 42.8673 61.077 42.721C61.1504 42.5746 61.1943 42.4152 61.2062 42.2518C61.218 42.0885 61.1975 41.9244 61.146 41.769C61.0944 41.6136 61.0127 41.4698 60.9056 41.346C60.7984 41.2221 60.668 41.1205 60.5216 41.0471C59.6649 40.6134 58.7482 40.3104 57.8018 40.1481C57.6401 40.1219 57.4749 40.1278 57.3155 40.1655C57.1561 40.2032 57.0057 40.2719 56.8729 40.3677C56.6046 40.5611 56.4242 40.8532 56.3713 41.1797C56.3184 41.5062 56.3974 41.8404 56.5908 42.1087C56.7843 42.3769 57.0764 42.5574 57.4029 42.6103Z" fill="#0A58CA"/>
<path d="M62.4977 46.9218C62.5105 47.2438 62.6474 47.5485 62.8797 47.7719C63.112 47.9953 63.4218 48.1202 63.7441 48.1204H63.7937C64.124 48.1075 64.4356 47.9639 64.66 47.7212C64.8845 47.4785 65.0033 47.1567 64.9904 46.8264C64.9306 45.7481 64.5534 44.7115 63.9063 43.847C63.7116 43.5841 63.4215 43.408 63.0984 43.3568C62.7753 43.3056 62.445 43.3833 62.1786 43.5732C61.9122 43.763 61.7309 44.0499 61.6739 44.372C61.6169 44.6942 61.6886 45.0258 61.8736 45.2956C62.236 45.7651 62.4529 46.3304 62.4977 46.9218Z" fill="#0A58CA"/>
<path d="M52.0741 44.6543C52.3659 44.6546 52.6484 44.5519 52.8719 44.3642C53.389 43.919 53.9469 43.5235 54.5381 43.1828C54.8269 43.0208 55.0395 42.7507 55.1292 42.432C55.2188 42.1133 55.1782 41.772 55.0162 41.4832C54.8542 41.1944 54.5842 40.9818 54.2654 40.8921C53.9467 40.8024 53.6054 40.8431 53.3166 41.0051C52.5908 41.4215 51.9058 41.9053 51.2705 42.4499C51.0734 42.6139 50.9316 42.8347 50.8646 43.0823C50.7976 43.3298 50.8085 43.592 50.896 43.8331C50.9835 44.0741 51.1431 44.2824 51.3533 44.4293C51.5634 44.5763 51.8138 44.6549 52.0703 44.6543H52.0741Z" fill="#0A58CA"/>
<path d="M43.149 63.8553C43.0731 63.5331 42.8723 63.2542 42.5907 63.0801C42.3092 62.906 41.9701 62.8508 41.6479 62.9267C41.3257 63.0026 41.0468 63.2035 40.8727 63.485C40.6986 63.7665 40.6434 64.1057 40.7193 64.4278C40.7966 64.7651 40.8534 65.1067 40.8892 65.4509C40.9204 65.7576 41.0644 66.0419 41.2932 66.2485C41.5221 66.4552 41.8195 66.5695 42.1279 66.5693C42.1711 66.5721 42.2145 66.5721 42.2577 66.5693C42.4205 66.5529 42.5784 66.5044 42.7225 66.4268C42.8665 66.3491 42.9938 66.2438 43.097 66.1168C43.2002 65.9898 43.2773 65.8437 43.3239 65.6869C43.3705 65.53 43.3857 65.3655 43.3685 65.2028C43.3235 64.7495 43.2502 64.2994 43.149 63.8553Z" fill="#0A58CA"/>
<path d="M41.3499 59.9484C40.8016 59.2053 40.1737 58.5244 39.4775 57.9176C39.229 57.6994 38.904 57.5889 38.574 57.6104C38.2439 57.6319 37.936 57.7836 37.7178 58.0321C37.4996 58.2807 37.3891 58.6057 37.4106 58.9357C37.4321 59.2657 37.5838 59.5737 37.8323 59.7919C38.3916 60.278 38.8959 60.824 39.3363 61.4199C39.5314 61.687 39.8247 61.8655 40.1515 61.9164C40.4783 61.9672 40.8119 61.8861 41.0789 61.691C41.3459 61.4958 41.5245 61.2026 41.5753 60.8758C41.6261 60.549 41.545 60.2154 41.3499 59.9484Z" fill="#0A58CA"/>
<path d="M36.0302 55.629C35.2163 55.2118 34.3668 54.8682 33.4917 54.6022C33.1733 54.5128 32.8325 54.5536 32.5442 54.7156C32.2558 54.8775 32.0437 55.1474 31.9543 55.4658C31.865 55.7842 31.9058 56.1251 32.0678 56.4134C32.2297 56.7017 32.4996 56.9139 32.818 57.0032C33.5405 57.2291 34.2428 57.5151 34.9175 57.8583C35.0639 57.9316 35.2232 57.9754 35.3865 57.9871C35.5498 57.9988 35.7138 57.9782 35.8692 57.9266C36.0245 57.8749 36.1681 57.7931 36.2919 57.686C36.4156 57.5788 36.5171 57.4483 36.5904 57.3019C36.6637 57.1555 36.7075 56.9962 36.7192 56.8329C36.7309 56.6696 36.7103 56.5056 36.6587 56.3502C36.607 56.1949 36.5253 56.0512 36.4181 55.9275C36.3109 55.8037 36.1804 55.7023 36.034 55.629H36.0302Z" fill="#0A58CA"/>
<path d="M54.4847 62.9142C54.1625 62.8398 53.824 62.8964 53.5435 63.0713C53.263 63.2463 53.0633 63.5254 52.9883 63.8475C52.8876 64.2879 52.8143 64.7341 52.7689 65.1835C52.752 65.3463 52.7674 65.5109 52.8142 65.6678C52.861 65.8247 52.9383 65.9708 53.0416 66.0977C53.145 66.2247 53.2724 66.33 53.4165 66.4076C53.5607 66.4852 53.7187 66.5336 53.8816 66.5501C53.9242 66.5529 53.9669 66.5529 54.0095 66.5501C54.3178 66.5503 54.6152 66.4359 54.8441 66.2293C55.073 66.0227 55.2169 65.7384 55.2482 65.4316C55.284 65.0875 55.3407 64.7459 55.418 64.4086C55.4923 64.0867 55.4357 63.7484 55.2607 63.4682C55.0857 63.1879 54.8066 62.9887 54.4847 62.9142Z" fill="#0A58CA"/>
<path d="M62.6458 54.602C61.7709 54.8685 60.9214 55.2121 60.1073 55.6289C59.8117 55.777 59.587 56.0364 59.4826 56.3501C59.3783 56.6638 59.4029 57.0062 59.5509 57.3018C59.699 57.5974 59.9584 57.8221 60.2722 57.9265C60.5859 58.0308 60.9282 58.0062 61.2238 57.8582C61.8984 57.5145 62.6007 57.2285 63.3233 57.0031C63.6417 56.9135 63.9115 56.7011 64.0733 56.4126C64.2351 56.1241 64.2756 55.7832 64.186 55.4648C64.0964 55.1464 63.884 54.8766 63.5955 54.7148C63.307 54.553 62.9661 54.5125 62.6477 54.602H62.6458Z" fill="#0A58CA"/>
<path d="M56.6622 57.9176C55.965 58.5238 55.3365 59.2048 54.788 59.9484C54.6054 60.216 54.534 60.544 54.5888 60.8633C54.6437 61.1826 54.8205 61.468 55.0819 61.6593C55.3433 61.8506 55.6689 61.9328 55.9898 61.8884C56.3107 61.8441 56.6018 61.6768 56.8016 61.4218C57.242 60.8253 57.7463 60.2787 58.3056 59.7919C58.4286 59.684 58.5293 59.5529 58.6017 59.4061C58.6741 59.2593 58.7168 59.0997 58.7276 58.9364C58.7383 58.7731 58.7167 58.6092 58.6642 58.4542C58.6116 58.2993 58.5289 58.1561 58.421 58.0331C58.3131 57.91 58.1821 57.8094 58.0353 57.737C57.8885 57.6646 57.7289 57.6218 57.5656 57.6111C57.4022 57.6004 57.2384 57.6219 57.0834 57.6745C56.9284 57.7271 56.7853 57.8097 56.6622 57.9176Z" fill="#0A58CA"/>
</svg>
