<svg width="99" height="98" viewBox="0 0 99 98" fill="none" xmlns="http://www.w3.org/2000/svg">
<path d="M25.6482 28.7365C24.274 30.5879 23.9304 35.2259 23.8675 36.6211C23.7489 38.7369 23.9054 40.8592 24.3332 42.9348C24.7492 44.8911 25.6062 46.4734 26.6808 47.9602C26.7813 48.1014 26.9204 48.2105 27.0814 48.2746C27.2424 48.3387 27.4184 48.355 27.5884 48.3216C27.7585 48.2881 27.9152 48.2064 28.04 48.0861C28.1647 47.9658 28.2521 47.8121 28.2917 47.6434C29.288 43.9635 30.4465 40.612 33.0098 37.5429C35.2091 34.9361 38.0112 32.9051 41.173 31.6262C43.3755 30.7215 47.2481 29.1774 47.8894 26.3965C49.0995 21.1593 42.0891 18.5597 38.3463 19.0006C35.8651 19.2945 33.4087 20.0542 31.3302 21.4818C29.162 22.9706 28.8032 24.0432 28.8337 27.0188C28.8432 27.8395 28.2115 28.309 27.4347 28.0456C26.6999 27.8032 26.1082 28.1086 25.6482 28.7365Z" fill="#6EA8FE"/>
<path d="M47.8888 26.4006C47.2456 29.1814 43.3729 30.7255 41.1723 31.6283C40.7238 31.8192 40.2829 32.01 39.8477 32.2238C37.2931 30.3394 35.1758 27.9253 33.6409 25.1466C33.2114 24.4103 32.8852 23.6184 32.6713 22.7933C32.5476 22.1403 32.4622 21.4807 32.4155 20.8178C34.2592 19.8375 36.2746 19.2219 38.3514 19.0046C42.0865 18.5618 49.0988 21.1633 47.8888 26.4006Z" fill="#0A58CA"/>
<path d="M67.0725 20.1175C67.0158 20.3288 67.0025 20.5493 67.0333 20.7657C67.0642 20.9822 67.1385 21.1902 67.2519 21.3772C69.5422 25.1754 71.823 28.2349 72.304 34.7701C72.304 34.7701 72.9835 45.321 69.7503 48.2125C69.7503 48.2125 68.3379 49.5657 68.0325 48.2125C68.0325 48.2125 67.0266 38.0033 51.0304 32.0465C51.0304 32.0465 34.5227 25.9198 36.2252 16.2201C36.2252 16.2201 36.8589 9.19257 44.9534 6.77625C49.8376 5.31615 55.1149 6.33536 59.2375 9.3319C62.4044 11.637 65.09 14.5391 67.1431 17.8749C67.2606 18.0634 67.3382 18.2739 67.371 18.4935C67.4038 18.7132 67.3912 18.9372 67.3339 19.1518L67.0725 20.1175Z" fill="#6EA8FE"/>
<path d="M69.7501 48.2142C69.7501 48.2142 68.6909 49.2257 68.2137 48.6226C69.9544 44.5172 69.4772 37.1193 69.4772 37.1193C68.9981 30.5861 66.7154 27.5247 64.427 23.7265C64.3138 23.5394 64.2398 23.3313 64.2093 23.1148C64.1788 22.8983 64.1924 22.6779 64.2495 22.4668L64.5071 21.501C64.5639 21.2864 64.5762 21.0625 64.5434 20.8429C64.5105 20.6234 64.4333 20.4128 64.3163 20.2242C62.2632 16.8896 59.5792 13.9877 56.4146 11.6811C52.29 8.6846 47.0146 7.67303 42.1304 9.12549C40.9945 9.46003 39.9046 9.93447 38.8857 10.5379C40.1817 9.05106 42.1075 7.62722 44.9609 6.77406C49.8451 5.31587 55.1224 6.33317 59.2451 9.32972C62.4079 11.6371 65.0905 14.5389 67.143 17.8727C67.2604 18.0615 67.338 18.2724 67.3708 18.4924C67.4036 18.7123 67.391 18.9366 67.3338 19.1515L67.0762 20.1173C67.0206 20.3286 67.0079 20.5489 67.0387 20.7652C67.0695 20.9816 67.1432 21.1895 67.2556 21.377C69.5459 25.1751 71.8267 28.2347 72.3077 34.7698C72.2962 34.7698 72.9834 45.3207 69.7501 48.2142Z" fill="#0A58CA"/>
<path d="M67.9716 77.8055L56.7107 73.0034C56.3987 72.8716 56.1325 72.6506 55.9457 72.3681C55.759 72.0855 55.6599 71.7541 55.661 71.4154V69.7492C60.3275 67.4187 63.9597 63.8744 66.4733 59.1868C68.0248 56.2338 69.1121 53.0594 69.697 49.7754C70.0286 49.604 70.3344 49.3868 70.6055 49.1303C74.1727 45.9085 73.6307 35.829 73.5562 34.6781C73.1039 28.5095 71.1208 25.2839 69.0233 21.8713C68.7942 21.4895 68.5614 21.1193 68.3304 20.7261C68.3036 20.6823 68.2858 20.6335 68.2783 20.5826C68.2707 20.5318 68.2735 20.48 68.2865 20.4302L68.5461 19.4759C68.6463 19.0969 68.6683 18.7014 68.6109 18.3136C68.5535 17.9258 68.4178 17.5537 68.2121 17.2199C66.0732 13.742 63.274 10.7166 59.9725 8.31428C55.5006 5.06961 49.748 4.04277 44.5986 5.57921C41.2852 6.56979 38.7219 8.38299 36.987 10.9673C36.8955 11.1031 36.8316 11.2557 36.7991 11.4162C36.7666 11.5767 36.766 11.742 36.7973 11.9028C36.8607 12.2274 37.0504 12.5136 37.3248 12.6984C37.5991 12.8832 37.9357 12.9514 38.2603 12.888C38.585 12.8246 38.8711 12.6349 39.0559 12.3606C39.9795 10.9951 41.2155 9.86969 42.6613 9.07773C44.3409 11.6047 47.2306 13.019 50.0782 14.2482C52.5404 15.3113 55.6132 16.6359 56.9168 19.1037C56.9938 19.2489 57.0986 19.3774 57.2252 19.482C57.3518 19.5867 57.4978 19.6653 57.6548 19.7135C57.8119 19.7617 57.9768 19.7786 58.1404 19.763C58.3039 19.7474 58.4628 19.6998 58.6079 19.6229C58.753 19.5459 58.8815 19.4412 58.9862 19.3145C59.0908 19.1879 59.1695 19.0419 59.2177 18.8849C59.2659 18.7279 59.2827 18.5629 59.2671 18.3993C59.2516 18.2358 59.204 18.077 59.127 17.9318C57.4093 14.6872 53.7447 13.1107 51.0745 11.9578C48.6429 10.91 46.3621 9.81255 45.0032 8.06615L45.3067 7.97072C49.7137 6.65377 54.6475 7.53937 58.501 10.3393C61.5359 12.5493 64.1093 15.3315 66.0763 18.5292C66.1037 18.5736 66.1217 18.623 66.1293 18.6745C66.1368 18.7261 66.1337 18.7786 66.1202 18.8289L65.8626 19.7947C65.7654 20.1686 65.7443 20.5582 65.8003 20.9405C65.8564 21.3227 65.9885 21.6898 66.1889 22.0201C66.4256 22.4018 66.6604 22.795 66.8951 23.1768C68.9145 26.4615 70.657 29.2977 71.0655 34.8499C71.306 38.5813 70.972 45.0725 69.1015 47.109C68.4201 44.2728 65.2843 36.0218 51.4715 30.8857C51.3246 30.8303 36.8056 25.3316 37.3725 17.1627C37.3671 16.8503 37.2447 16.5514 37.0296 16.3248C36.8145 16.0983 36.5223 15.9607 36.2107 15.9391C35.899 15.9175 35.5906 16.0136 35.3463 16.2083C35.1021 16.403 34.9397 16.6823 34.8913 16.9909C34.8581 17.4772 34.8632 17.9654 34.9066 18.451C33.3904 18.8959 31.9521 19.5725 30.6427 20.457C28.3294 22.0411 27.7034 23.3886 27.6099 25.9519V25.9767C27.6106 25.9901 27.6106 26.0034 27.6099 26.0168C27.6099 26.2687 27.5984 26.5302 27.6099 26.807C26.5029 26.534 25.4436 26.9616 24.6706 28.0018C24.035 28.8568 22.928 31.1071 22.6455 36.5639C22.5211 38.7886 22.6867 41.02 23.138 43.2021C23.5407 45.0916 24.3518 46.838 25.6936 48.697C25.9202 49.0126 26.2283 49.2606 26.5849 49.4146C27.2205 53.0143 28.318 56.2952 29.8735 59.1944C32.3853 63.8801 36.0155 67.4244 40.6801 69.7549V71.4249C40.6808 71.7633 40.5816 72.0943 40.3948 72.3765C40.2081 72.6587 39.9421 72.8794 39.6304 73.011L28.36 77.8131C27.0049 78.3891 25.8494 79.3512 25.0375 80.5796C24.2257 81.8079 23.7934 83.248 23.7945 84.7204V88.9194C23.7945 89.2505 23.926 89.568 24.1601 89.802C24.3942 90.0361 24.7117 90.1676 25.0428 90.1676H71.2907C71.4545 90.1676 71.6168 90.1353 71.7681 90.0726C71.9194 90.0098 72.0569 89.9179 72.1727 89.8019C72.2884 89.686 72.3802 89.5484 72.4427 89.3969C72.5052 89.2455 72.5373 89.0832 72.537 88.9194V84.7204C72.5397 83.2467 72.1081 81.8049 71.2961 80.5751C70.4842 79.3453 69.3278 78.382 67.9716 77.8055ZM32.0455 58.0073C30.5461 55.1485 29.515 52.0676 28.9917 48.8821C29.2271 48.6217 29.3972 48.309 29.488 47.9698C30.4175 44.5343 31.4214 41.7324 33.3052 39.1806C33.4758 38.9139 33.5386 38.5923 33.4807 38.2811C33.4229 37.9698 33.2487 37.6923 32.9937 37.5047C32.7386 37.3172 32.4217 37.2338 32.1074 37.2714C31.7931 37.3089 31.5048 37.4647 31.3012 37.7071C29.3219 40.3926 28.2302 43.2421 27.2759 46.6376C26.4515 45.4436 25.868 44.1003 25.5581 42.6829C25.1507 40.7136 25.0025 38.6995 25.1172 36.6917C25.289 33.3383 25.8921 30.5097 26.6441 29.4867C26.8674 29.1851 26.9438 29.2099 27.0258 29.2405C27.2319 29.3104 27.4462 29.3534 27.6633 29.3683C27.7435 30.8952 27.9038 32.6321 28.2245 33.949C28.2899 34.2208 28.4449 34.4626 28.6643 34.6356C28.8838 34.8087 29.155 34.903 29.4345 34.9034C29.5336 34.9035 29.6324 34.8914 29.7284 34.8671C29.8877 34.8286 30.0377 34.7591 30.17 34.6625C30.3024 34.566 30.4144 34.4443 30.4996 34.3044C30.5849 34.1646 30.6418 34.0093 30.667 33.8474C30.6922 33.6856 30.6852 33.5203 30.6465 33.3612C30.0243 30.8017 30.0739 26.0569 30.0739 26.0092V25.9901C30.1388 24.1139 30.5358 23.5337 32.0226 22.5164C33.0718 21.8101 34.2199 21.2634 35.4295 20.894C36.7293 24.4555 39.974 27.3261 43.1346 29.3989C42.2891 29.8245 41.4474 30.1623 40.7985 30.4372L40.684 30.483C38.8848 31.2193 37.1865 32.1813 35.6299 33.3459C35.3798 33.5496 35.2182 33.8423 35.179 34.1625C35.1399 34.4827 35.2263 34.8056 35.42 35.0636C35.6138 35.3215 35.8999 35.4944 36.2184 35.546C36.5368 35.5976 36.8629 35.524 37.1282 35.3404C38.5147 34.3028 40.0277 33.4459 41.6306 32.7905L41.7452 32.7428C42.8483 32.2904 44.2836 31.7007 45.6006 30.8838C47.2049 31.7776 48.8694 32.5589 50.5821 33.2219C54.9185 34.8366 60.8352 37.8312 64.3872 42.9291C66.4867 45.9524 66.7768 48.3267 66.7787 48.342C66.784 48.3927 66.7923 48.443 66.8035 48.4928C66.8686 48.8192 67.007 49.1266 67.2081 49.3917C66.6683 52.4004 65.6706 55.3085 64.2498 58.0149C61.6598 62.8456 57.7604 66.3289 52.6339 68.3711C49.7492 69.5258 46.5308 69.5258 43.6462 68.3711C38.5444 66.3232 34.6355 62.838 32.0455 58.0073ZM70.0425 87.6616H26.2643V84.7128C26.2638 83.7291 26.5532 82.7671 27.0963 81.947C27.6394 81.1268 28.4122 80.485 29.3181 80.1015L40.5828 75.3071C41.3446 74.9836 41.9944 74.4429 42.4509 73.7525C42.9074 73.0621 43.1505 72.2526 43.1499 71.4249V70.8428C46.38 72.0298 49.9268 72.0298 53.1568 70.8428V71.4154C53.1542 72.2445 53.3961 73.0559 53.8524 73.7481C54.3087 74.4404 54.9591 74.9827 55.722 75.3071L66.9944 80.1111C67.9003 80.4945 68.673 81.1364 69.2162 81.9565C69.7593 82.7766 70.0487 83.7387 70.0482 84.7223L70.0425 87.6616Z" fill="#0A58CA"/>
<path d="M38.5576 48.907C38.5576 49.9139 38.9576 50.8795 39.6695 51.5914C40.3814 52.3033 41.347 52.7033 42.3539 52.7033C43.3607 52.7033 44.3263 52.3033 45.0382 51.5914C45.7502 50.8795 46.1501 49.9139 46.1501 48.907C46.1567 48.7391 46.1293 48.5716 46.0696 48.4146C46.0098 48.2575 45.919 48.1141 45.8026 47.993C45.6861 47.8719 45.5464 47.7755 45.3918 47.7097C45.2372 47.6439 45.0709 47.61 44.9028 47.61C44.7348 47.61 44.5685 47.6439 44.4139 47.7097C44.2593 47.7755 44.1196 47.8719 44.0031 47.993C43.8866 48.1141 43.7958 48.2575 43.7361 48.4146C43.6764 48.5716 43.649 48.7391 43.6555 48.907C43.6555 49.078 43.6219 49.2472 43.5565 49.4052C43.491 49.5631 43.3952 49.7066 43.2743 49.8275C43.1534 49.9483 43.0099 50.0442 42.852 50.1096C42.6941 50.175 42.5248 50.2087 42.3539 50.2087C42.1829 50.2087 42.0136 50.175 41.8557 50.1096C41.6978 50.0442 41.5543 49.9483 41.4334 49.8275C41.3126 49.7066 41.2167 49.5631 41.1513 49.4052C41.0858 49.2472 41.0522 49.078 41.0522 48.907C41.0587 48.7391 41.0313 48.5716 40.9716 48.4146C40.9119 48.2575 40.8211 48.1141 40.7046 47.993C40.5881 47.8719 40.4484 47.7755 40.2938 47.7097C40.1392 47.6439 39.9729 47.61 39.8049 47.61C39.6369 47.61 39.4706 47.6439 39.3159 47.7097C39.1613 47.7755 39.0216 47.8719 38.9052 47.993C38.7887 48.1141 38.6979 48.2575 38.6381 48.4146C38.5784 48.5716 38.551 48.7391 38.5576 48.907Z" fill="#0A58CA"/>
<path d="M53.9579 52.7033C54.9642 52.7018 55.929 52.3013 56.6406 51.5897C57.3522 50.8781 57.7526 49.9134 57.7541 48.907C57.7607 48.7391 57.7333 48.5716 57.6736 48.4146C57.6139 48.2575 57.523 48.1141 57.4066 47.993C57.2901 47.8719 57.1504 47.7755 56.9958 47.7097C56.8412 47.6439 56.6749 47.61 56.5068 47.61C56.3388 47.61 56.1725 47.6439 56.0179 47.7097C55.8633 47.7755 55.7236 47.8719 55.6071 47.993C55.4907 48.1141 55.3998 48.2575 55.3401 48.4146C55.2804 48.5716 55.253 48.7391 55.2596 48.907C55.2467 49.2439 55.1038 49.5626 54.8609 49.7964C54.618 50.0302 54.294 50.1608 53.9569 50.1608C53.6198 50.1608 53.2958 50.0302 53.053 49.7964C52.8101 49.5626 52.6672 49.2439 52.6543 48.907C52.6543 48.5765 52.523 48.2595 52.2892 48.0257C52.0555 47.792 51.7385 47.6607 51.408 47.6607C51.0774 47.6607 50.7604 47.792 50.5267 48.0257C50.2929 48.2595 50.1616 48.5765 50.1616 48.907C50.1626 49.9135 50.5629 50.8786 51.2746 51.5903C51.9864 52.302 52.9514 52.7023 53.9579 52.7033Z" fill="#0A58CA"/>
<path d="M41.6894 43.1827C42.2797 43.524 42.8369 43.9195 43.3537 44.3642C43.4775 44.4798 43.6236 44.569 43.783 44.6263C43.9424 44.6836 44.1118 44.7078 44.2809 44.6975C44.4499 44.6871 44.6151 44.6424 44.7663 44.566C44.9175 44.4897 45.0516 44.3833 45.1603 44.2534C45.2691 44.1235 45.3502 43.9728 45.3987 43.8105C45.4472 43.6482 45.4621 43.4778 45.4426 43.3095C45.423 43.1412 45.3694 42.9787 45.2849 42.8319C45.2004 42.6851 45.0869 42.557 44.9513 42.4556C44.3165 41.9078 43.6307 41.422 42.9033 41.005C42.7603 40.9252 42.603 40.8743 42.4403 40.8553C42.2777 40.8362 42.1129 40.8494 41.9553 40.8941C41.7977 40.9387 41.6505 41.014 41.5221 41.1156C41.3936 41.2171 41.2864 41.343 41.2065 41.486C41.1267 41.629 41.0758 41.7863 41.0568 41.9489C41.0378 42.1116 41.0509 42.2764 41.0956 42.434C41.1403 42.5915 41.2155 42.7387 41.3171 42.8672C41.4187 42.9957 41.5445 43.1029 41.6875 43.1827H41.6894Z" fill="#0A58CA"/>
<path d="M32.4845 48.1205C32.8065 48.1198 33.1158 47.9947 33.3477 47.7713C33.5796 47.548 33.7162 47.2436 33.729 46.9219C33.7734 46.3299 33.9904 45.7639 34.3531 45.2939C34.4482 45.1605 34.5161 45.0097 34.553 44.8501C34.5898 44.6905 34.5949 44.5253 34.5679 44.3637C34.5408 44.2022 34.4823 44.0475 34.3955 43.9086C34.3087 43.7697 34.1954 43.6493 34.062 43.5541C33.9287 43.459 33.7779 43.3911 33.6183 43.3542C33.4587 43.3174 33.2934 43.3123 33.1319 43.3394C32.9703 43.3664 32.8157 43.425 32.6768 43.5118C32.5379 43.5986 32.4174 43.7119 32.3223 43.8452C31.6746 44.7096 31.2967 45.7461 31.2363 46.8246C31.2234 47.1549 31.3422 47.4768 31.5667 47.7194C31.7911 47.9621 32.1027 48.1057 32.433 48.1186L32.4845 48.1205Z" fill="#0A58CA"/>
<path d="M39.8499 41.1808C39.797 40.8541 39.6164 40.5617 39.348 40.3681C39.0795 40.1745 38.7452 40.0954 38.4184 40.1482C37.4727 40.3105 36.5566 40.6135 35.7006 41.0472C35.5542 41.1205 35.4237 41.2219 35.3165 41.3457C35.2093 41.4694 35.1276 41.6131 35.0759 41.7684C35.0242 41.9238 35.0037 42.0878 35.0154 42.251C35.0271 42.4143 35.0709 42.5737 35.1442 42.7201C35.2175 42.8665 35.3189 42.997 35.4427 43.1042C35.5664 43.2113 35.7101 43.2931 35.8654 43.3448C36.0208 43.3964 36.1848 43.417 36.3481 43.4053C36.5114 43.3935 36.6707 43.3498 36.8171 43.2765C37.447 42.9562 38.1212 42.7317 38.8174 42.6104C38.9791 42.5844 39.134 42.5268 39.2735 42.4408C39.4129 42.3549 39.534 42.2423 39.6299 42.1096C39.7258 41.9768 39.7946 41.8264 39.8324 41.6671C39.8701 41.5077 39.8761 41.3425 39.8499 41.1808Z" fill="#0A58CA"/>
<path d="M57.4871 42.6101C58.1834 42.7312 58.8576 42.9557 59.4874 43.2762C59.6337 43.3497 59.7931 43.3936 59.9565 43.4054C60.1198 43.4172 60.2839 43.3968 60.4393 43.3452C60.5948 43.2936 60.7385 43.212 60.8624 43.1048C60.9862 42.9977 61.0878 42.8672 61.1612 42.7208C61.2347 42.5745 61.2786 42.4151 61.2904 42.2517C61.3022 42.0884 61.2818 41.9243 61.2302 41.7689C61.1786 41.6134 61.0969 41.4697 60.9898 41.3458C60.8827 41.222 60.7522 41.1204 60.6058 41.047C59.7491 40.6133 58.8324 40.3103 57.886 40.148C57.7244 40.1218 57.5591 40.1277 57.3997 40.1654C57.2404 40.2031 57.0899 40.2718 56.9571 40.3675C56.6888 40.561 56.5084 40.8531 56.4555 41.1796C56.4026 41.5061 56.4816 41.8403 56.675 42.1085C56.8685 42.3768 57.1606 42.5572 57.4871 42.6101Z" fill="#0A58CA"/>
<path d="M62.5822 46.9219C62.595 47.244 62.7319 47.5486 62.9642 47.772C63.1965 47.9954 63.5062 48.1203 63.8285 48.1205H63.8782C64.2085 48.1076 64.5201 47.964 64.7445 47.7214C64.9689 47.4787 65.0878 47.1568 65.0749 46.8265C65.0151 45.7482 64.6379 44.7117 63.9908 43.8471C63.7961 43.5842 63.506 43.4082 63.1829 43.3569C62.8598 43.3057 62.5295 43.3834 62.2631 43.5733C61.9966 43.7632 61.8154 44.05 61.7584 44.3722C61.7013 44.6943 61.773 45.026 61.9581 45.2958C62.3204 45.7652 62.5374 46.3305 62.5822 46.9219Z" fill="#0A58CA"/>
<path d="M52.1586 44.6546C52.4504 44.6549 52.7329 44.5521 52.9564 44.3645C53.4735 43.9193 54.0314 43.5237 54.6226 43.183C54.9114 43.0211 55.124 42.751 55.2137 42.4322C55.3033 42.1135 55.2627 41.7722 55.1007 41.4834C54.9387 41.1946 54.6687 40.982 54.3499 40.8924C54.0312 40.8027 53.6899 40.8433 53.4011 41.0053C52.6753 41.4218 51.9903 41.9055 51.355 42.4501C51.1579 42.6141 51.0161 42.835 50.9491 43.0825C50.8821 43.33 50.893 43.5922 50.9805 43.8333C51.0679 44.0744 51.2276 44.2826 51.4378 44.4296C51.6479 44.5766 51.8983 44.6551 52.1547 44.6546H52.1586Z" fill="#0A58CA"/>
<path d="M43.234 63.8555C43.158 63.5333 42.9572 63.2545 42.6757 63.0803C42.3942 62.9062 42.055 62.851 41.7328 62.927C41.4106 63.0029 41.1318 63.2037 40.9577 63.4852C40.7835 63.7667 40.7283 64.1059 40.8043 64.4281C40.8816 64.7653 40.9383 65.107 40.9741 65.4511C41.0054 65.7579 41.1494 66.0421 41.3782 66.2488C41.6071 66.4554 41.9045 66.5697 42.2128 66.5696C42.2561 66.5724 42.2994 66.5724 42.3426 66.5696C42.5054 66.5531 42.6634 66.5047 42.8074 66.427C42.9515 66.3494 43.0787 66.244 43.182 66.1171C43.2852 65.9901 43.3623 65.844 43.4089 65.6871C43.4555 65.5302 43.4706 65.3657 43.4535 65.203C43.4085 64.7497 43.3352 64.2997 43.234 63.8555Z" fill="#0A58CA"/>
<path d="M41.4341 59.9485C40.8858 59.2055 40.2579 58.5245 39.5618 57.9177C39.3132 57.6996 38.9882 57.5891 38.6582 57.6105C38.3282 57.632 38.0202 57.7837 37.802 58.0323C37.5838 58.2808 37.4733 58.6058 37.4948 58.9359C37.5163 59.2659 37.668 59.5738 37.9165 59.792C38.4758 60.2781 38.9802 60.8241 39.4205 61.4201C39.6157 61.6871 39.9089 61.8657 40.2357 61.9165C40.5625 61.9673 40.8961 61.8862 41.1631 61.6911C41.4301 61.496 41.6087 61.2027 41.6595 60.8759C41.7103 60.5491 41.6293 60.2155 41.4341 59.9485Z" fill="#0A58CA"/>
<path d="M36.1144 55.6294C35.3005 55.2122 34.451 54.8686 33.576 54.6025C33.2576 54.5132 32.9167 54.554 32.6284 54.7159C32.3401 54.8779 32.1279 55.1478 32.0386 55.4662C31.9492 55.7846 31.99 56.1254 32.152 56.4137C32.3139 56.7021 32.5838 56.9142 32.9022 57.0036C33.6247 57.2295 34.327 57.5155 35.0017 57.8586C35.1481 57.932 35.3075 57.9757 35.4708 57.9874C35.634 57.9992 35.798 57.9786 35.9534 57.9269C36.1087 57.8753 36.2524 57.7935 36.3761 57.6863C36.4999 57.5792 36.6013 57.4487 36.6746 57.3023C36.7479 57.1559 36.7917 56.9965 36.8034 56.8332C36.8151 56.6699 36.7946 56.5059 36.7429 56.3506C36.6912 56.1952 36.6095 56.0516 36.5023 55.9279C36.3951 55.8041 36.2646 55.7027 36.1182 55.6294H36.1144Z" fill="#0A58CA"/>
<path d="M54.5692 62.9145C54.247 62.8402 53.9085 62.8967 53.628 63.0717C53.3474 63.2467 53.1478 63.5258 53.0728 63.8478C52.9721 64.2882 52.8988 64.7344 52.8533 65.1839C52.8364 65.3467 52.8518 65.5113 52.8986 65.6682C52.9454 65.825 53.0227 65.9711 53.1261 66.0981C53.2295 66.225 53.3569 66.3303 53.501 66.408C53.6451 66.4856 53.8032 66.534 53.9661 66.5505C54.0086 66.5533 54.0514 66.5533 54.0939 66.5505C54.4023 66.5506 54.6997 66.4363 54.9286 66.2297C55.1574 66.023 55.3014 65.7388 55.3326 65.432C55.3685 65.0879 55.4252 64.7462 55.5025 64.409C55.5768 64.087 55.5202 63.7488 55.3452 63.4686C55.1702 63.1883 54.8911 62.989 54.5692 62.9145Z" fill="#0A58CA"/>
<path d="M62.7302 54.6023C61.8553 54.8687 61.0058 55.2123 60.1918 55.6291C59.8962 55.7772 59.6715 56.0366 59.5671 56.3504C59.4628 56.6641 59.4873 57.0064 59.6354 57.302C59.7835 57.5977 60.0429 57.8224 60.3566 57.9267C60.6704 58.031 61.0127 58.0065 61.3083 57.8584C61.9828 57.5148 62.6852 57.2288 63.4078 57.0033C63.7262 56.9138 63.996 56.7013 64.1578 56.4128C64.3196 56.1243 64.3601 55.7834 64.2705 55.465C64.1809 55.1466 63.9685 54.8768 63.68 54.715C63.3915 54.5533 63.0506 54.5127 62.7322 54.6023H62.7302Z" fill="#0A58CA"/>
<path d="M56.7467 57.9177C56.0495 58.524 55.4209 59.205 54.8724 59.9485C54.6899 60.2161 54.6185 60.5442 54.6733 60.8634C54.7282 61.1827 54.905 61.4681 55.1664 61.6594C55.4278 61.8507 55.7534 61.9329 56.0743 61.8886C56.3951 61.8443 56.6863 61.6769 56.8861 61.422C57.3264 60.8254 57.8308 60.2788 58.3901 59.792C58.5131 59.6841 58.6137 59.553 58.6861 59.4062C58.7585 59.2594 58.8013 59.0998 58.812 58.9365C58.8228 58.7732 58.8012 58.6094 58.7486 58.4544C58.696 58.2994 58.6134 58.1563 58.5055 58.0332C58.3976 57.9101 58.2665 57.8095 58.1197 57.7371C57.973 57.6647 57.8134 57.6219 57.65 57.6112C57.4867 57.6005 57.3229 57.622 57.1679 57.6746C57.0129 57.7272 56.8698 57.8098 56.7467 57.9177Z" fill="#0A58CA"/>
<path d="M4.25882 90.6777C4.40278 91.2279 4.65819 91.7428 5.00923 92.1903C5.36027 92.6379 5.79945 93.0086 6.29958 93.2795C6.89153 93.6003 7.5541 93.7685 8.22739 93.7689C8.64109 93.7667 9.05219 93.7032 9.44733 93.5807C9.98511 93.4142 10.4847 93.143 10.9173 92.7827C11.3499 92.4225 11.707 91.9803 11.9682 91.4816C13.7567 88.0552 16.9326 82.0327 18.098 80.2574C18.4313 79.8237 18.795 79.4141 19.1861 79.0318C19.8149 78.3766 20.4682 77.6989 20.8071 77.0795C20.9836 76.7355 21.1322 76.3779 21.2514 76.0102C21.291 75.8932 21.3564 75.7866 21.4428 75.6983C21.5291 75.61 21.6342 75.5422 21.7503 75.5C21.8676 75.4551 21.9935 75.4371 22.1186 75.4476C22.2438 75.458 22.365 75.4965 22.4732 75.5602C23.6005 76.2104 24.9399 76.3865 26.1969 76.0497C27.454 75.713 28.526 74.8909 29.1772 73.7642L32.0539 68.7734C32.463 68.0647 32.6344 67.2437 32.5429 66.4306C32.4514 65.6175 32.1019 64.8551 31.5456 64.2551L32.244 63.0445C32.4563 62.6728 32.5132 62.2323 32.4025 61.8188C32.2919 61.4053 32.0224 61.0522 31.6529 60.8362L30.5233 60.1811C30.5116 59.9953 30.4542 59.8153 30.3561 59.657C30.258 59.4988 30.1224 59.3673 29.9613 59.2741C29.8001 59.181 29.6184 59.1291 29.4324 59.1231C29.2463 59.1171 29.0617 59.1572 28.8948 59.2397L27.5638 58.4735C27.5521 58.2877 27.4947 58.1077 27.3966 57.9495C27.2986 57.7913 27.1629 57.6597 27.0018 57.5666C26.8406 57.4734 26.6589 57.4215 26.4729 57.4155C26.2868 57.4095 26.1022 57.4496 25.9353 57.5322L24.6062 56.7641C24.5945 56.5783 24.5371 56.3983 24.439 56.2401C24.341 56.0819 24.2053 55.9503 24.0442 55.8572C23.883 55.764 23.7013 55.7121 23.5153 55.7061C23.3292 55.7001 23.1446 55.7402 22.9777 55.8228L21.5225 54.9831C21.1494 54.7682 20.7063 54.7102 20.2905 54.8217C19.8747 54.9333 19.5202 55.2053 19.3047 55.578L18.6063 56.7867C17.8076 56.6036 16.9713 56.6817 16.2203 57.0094C15.4693 57.3371 14.8433 57.8971 14.4344 58.6072L11.5615 63.5811C10.9146 64.7082 10.7404 66.0457 11.0769 67.301C11.4135 68.5562 12.2335 69.6271 13.3575 70.2795C13.4671 70.3422 13.561 70.4291 13.632 70.5335C13.7031 70.6378 13.7496 70.757 13.768 70.8819C13.7901 71.0032 13.7847 71.128 13.7521 71.2469C13.7195 71.3658 13.6606 71.4759 13.5797 71.569C13.321 71.8557 13.0862 72.1629 12.8775 72.4878C12.5009 73.0902 12.2506 73.9939 11.9964 74.8693C11.8608 75.3986 11.6877 75.9176 11.4787 76.4225C10.5167 78.3352 6.86625 84.1318 4.77466 87.417C4.46972 87.8961 4.26657 88.4328 4.17783 88.9937C4.08909 89.5546 4.11666 90.1278 4.25882 90.6777ZM21.675 57.6809L21.6166 57.7826C21.4904 58.0395 21.4664 58.3348 21.5495 58.6087C21.6326 58.8826 21.8166 59.1147 22.0643 59.2582C22.312 59.4016 22.6049 59.4457 22.8839 59.3815C23.1628 59.3172 23.407 59.1495 23.567 58.9122L23.6254 58.8124L24.6326 59.3941L24.5761 59.4939C24.4278 59.7528 24.3879 60.0598 24.4651 60.348C24.5424 60.6361 24.7305 60.882 24.9884 61.032C25.1598 61.1319 25.3548 61.1839 25.5532 61.1826C25.7513 61.1824 25.9458 61.1301 26.1173 61.031C26.2888 60.9319 26.4312 60.7894 26.5303 60.6178L26.5886 60.518L27.5958 61.0998L27.5375 61.1996C27.4074 61.4571 27.3807 61.7546 27.463 62.0311C27.5453 62.3076 27.7303 62.5421 27.98 62.6866C28.2297 62.8311 28.5252 62.8746 28.8059 62.8081C29.0867 62.7416 29.3313 62.5702 29.4897 62.3291L29.5462 62.2294L29.9755 62.476L27.3718 66.9943L26.9463 66.7326L27.0028 66.6328C27.0893 66.5044 27.1486 66.3596 27.1768 66.2074C27.2051 66.0552 27.2017 65.8988 27.167 65.7479C27.1322 65.597 27.0669 65.4549 26.9749 65.3303C26.8829 65.2058 26.7663 65.1014 26.6323 65.0239C26.4983 64.9463 26.3498 64.897 26.196 64.8792C26.0422 64.8614 25.8864 64.8755 25.7382 64.9204C25.5901 64.9654 25.4527 65.0403 25.3348 65.1406C25.2168 65.2408 25.1207 65.3643 25.0524 65.5032L24.994 65.603L23.9868 65.0213L24.0452 64.9215C24.1753 64.664 24.2019 64.3665 24.1196 64.09C24.0373 63.8135 23.8524 63.5789 23.6027 63.4344C23.353 63.29 23.0574 63.2465 22.7767 63.313C22.496 63.3795 22.2513 63.5508 22.0929 63.7919L22.0364 63.8917L21.0292 63.3137L21.0876 63.214C21.1741 63.0856 21.2334 62.9408 21.2616 62.7886C21.2899 62.6363 21.2865 62.4799 21.2518 62.329C21.217 62.1781 21.1517 62.036 21.0597 61.9115C20.9677 61.7869 20.8511 61.6826 20.7171 61.605C20.5831 61.5274 20.4346 61.4782 20.2808 61.4604C20.127 61.4426 19.9712 61.4566 19.823 61.5016C19.6749 61.5465 19.5375 61.6215 19.4196 61.7217C19.3016 61.822 19.2055 61.9454 19.1372 62.0844L19.0788 62.1842L18.3258 61.753L19.7152 59.3602L20.9332 57.2498L21.675 57.6809ZM6.67423 88.6256C9.24965 84.5686 12.5329 79.3349 13.4893 77.4334C13.7668 76.8064 13.991 76.1571 14.1595 75.4924C14.3478 74.8279 14.5907 74.0033 14.8015 73.655C14.9438 73.4409 15.1017 73.2376 15.274 73.0469C15.5719 72.7019 15.79 72.2954 15.9128 71.8564C16.0355 71.4174 16.0599 70.9568 15.9842 70.5073C15.9085 70.0578 15.7346 69.6306 15.4748 69.256C15.2151 68.8814 14.8759 68.5688 14.4815 68.3404C13.8718 67.9883 13.427 67.4085 13.2449 66.7286C13.0627 66.0486 13.1581 65.3241 13.51 64.7144L16.3848 59.7368C16.5901 59.3795 16.9285 59.1182 17.3261 59.0101L16.7161 60.0681L16.0742 61.1807L14.6358 63.6733C14.2536 64.3387 14.1508 65.1284 14.3498 65.8695C14.5488 66.6106 15.0335 67.2425 15.6976 67.6268L16.1551 67.8923C16.412 68.0185 16.7073 68.0425 16.9812 67.9594C17.2551 67.8763 17.4872 67.6923 17.6307 67.4446C17.7741 67.1969 17.8182 66.9039 17.754 66.625C17.6898 66.3461 17.522 66.1019 17.2847 65.9419L16.8272 65.6764C16.7536 65.6341 16.689 65.5777 16.6373 65.5104C16.5855 65.443 16.5475 65.3662 16.5254 65.2842C16.5034 65.2022 16.4978 65.1166 16.5088 65.0324C16.5199 64.9482 16.5475 64.867 16.59 64.7935L17.2169 63.7053L18.1262 64.2306C18.1381 64.4161 18.1955 64.5958 18.2934 64.7538C18.3914 64.9118 18.5268 65.0432 18.6877 65.1363C18.8486 65.2294 19.03 65.2814 19.2158 65.2876C19.4016 65.2938 19.5861 65.2541 19.7528 65.1719L21.0725 65.9494C21.0841 66.1359 21.1418 66.3165 21.2404 66.4752C21.3389 66.6339 21.4753 66.7657 21.6373 66.8587C21.8085 66.9592 22.0036 67.0119 22.2021 67.0112C22.3775 67.0102 22.5502 66.9683 22.7066 66.8888L24.0395 67.6588C24.0512 67.8453 24.1088 68.0259 24.2074 68.1846C24.306 68.3433 24.4423 68.4751 24.6043 68.5681C24.766 68.6608 24.948 68.7121 25.1343 68.7173C25.3205 68.7226 25.5052 68.6817 25.6718 68.5983L26.2629 68.939L25.6285 70.0196C25.5419 70.1677 25.4005 70.2757 25.2348 70.3201C25.0691 70.3645 24.8927 70.3418 24.7436 70.2569L21.289 68.2613C21.1607 68.1747 21.0159 68.1155 20.8636 68.0872C20.7114 68.059 20.555 68.0623 20.4041 68.0971C20.2532 68.1318 20.1111 68.1972 19.9865 68.2892C19.862 68.3812 19.7577 68.4978 19.6801 68.6317C19.6025 68.7657 19.5533 68.9142 19.5355 69.068C19.5177 69.2218 19.5317 69.3777 19.5766 69.5258C19.6216 69.674 19.6965 69.8113 19.7968 69.9293C19.897 70.0473 20.0205 70.1434 20.1595 70.2117L23.6141 72.2073C24.2798 72.588 25.069 72.69 25.8096 72.4911C26.5503 72.2922 27.1822 71.8085 27.5676 71.1455L30.2597 66.4822C30.3612 66.8787 30.3031 67.2991 30.0978 67.6532L27.2249 72.629C26.8722 73.2378 26.2924 73.682 25.6127 73.8641C24.9331 74.0462 24.2089 73.9514 23.599 73.6004C23.2038 73.3712 22.7627 73.2323 22.3075 73.1937C21.8522 73.1551 21.3941 73.2178 20.9659 73.3772C20.5378 73.5367 20.1502 73.789 19.8311 74.1159C19.512 74.4429 19.2692 74.8365 19.1202 75.2684C19.0432 75.5156 18.9462 75.7561 18.8303 75.9876C18.6421 76.3434 18.0396 76.9628 17.5614 77.4617C17.0692 77.9393 16.6189 78.4583 16.2154 79.0129C15.0519 80.7864 12.1734 86.2083 9.96505 90.4442C9.84242 90.6786 9.67467 90.8864 9.47144 91.0557C9.26822 91.225 9.03353 91.3524 8.78088 91.4307C8.54792 91.504 8.30264 91.53 8.0595 91.507C7.81636 91.4841 7.58027 91.4127 7.36515 91.2971C7.13681 91.1745 6.93624 91.0061 6.77599 90.8024C6.61575 90.5987 6.49928 90.3641 6.43389 90.1133C6.36851 89.8626 6.3556 89.601 6.39598 89.345C6.43636 89.089 6.52917 88.8441 6.66858 88.6256H6.67423Z" fill="#0A58CA"/>
<path d="M31.8538 61.3634L21.7197 55.5122C21.6627 55.4797 21.5999 55.4588 21.5349 55.4507C21.4699 55.4426 21.4039 55.4474 21.3407 55.4649C21.2775 55.4824 21.2184 55.5123 21.1668 55.5527C21.1152 55.5931 21.0722 55.6433 21.04 55.7005L17.8095 61.2956C17.777 61.3526 17.7561 61.4154 17.748 61.4804C17.7398 61.5455 17.7447 61.6115 17.7622 61.6746C17.7797 61.7378 17.8095 61.7969 17.8499 61.8485C17.8903 61.9001 17.9406 61.9432 17.9977 61.9753L28.1319 67.8265C28.189 67.859 28.2519 67.8799 28.3171 67.8881C28.3823 67.8962 28.4484 67.8914 28.5118 67.8739C28.5751 67.8564 28.6343 67.8266 28.6861 67.7861C28.7378 67.7457 28.7811 67.6954 28.8134 67.6382L32.044 62.0412C32.0761 61.9842 32.0967 61.9215 32.1045 61.8565C32.1123 61.7916 32.1072 61.7258 32.0896 61.6628C32.0719 61.5999 32.042 61.541 32.0015 61.4896C31.9611 61.4383 31.9109 61.3954 31.8538 61.3634Z" fill="#0A58CA"/>
</svg>
