<svg width="99" height="99" viewBox="0 0 99 99" fill="none" xmlns="http://www.w3.org/2000/svg">
<path d="M38.9935 29.1725C37.6138 31.0306 37.2713 35.6939 37.2062 37.0907C37.0871 39.2153 37.2447 41.3463 37.675 43.4303C38.0922 45.3955 38.9533 46.9837 40.0306 48.4763C40.1318 48.6175 40.2715 48.7266 40.4329 48.7907C40.5944 48.8549 40.7708 48.8713 40.9414 48.838C41.1119 48.8048 41.2692 48.7232 41.3948 48.6031C41.5203 48.483 41.6087 48.3294 41.6494 48.1605C42.6483 44.4636 43.8137 41.0996 46.3874 38.0188C48.5969 35.4043 51.4107 33.3682 54.5849 32.0868C56.797 31.1779 60.6853 29.628 61.3302 26.8361C62.5452 21.5777 55.5034 18.9657 51.7529 19.4078C49.2653 19.7024 46.793 20.4659 44.7054 21.8954C42.5163 23.3937 42.1623 24.471 42.1948 27.4676C42.1948 28.2904 41.5691 28.763 40.7884 28.4971C40.0497 28.2349 39.4623 28.543 38.9935 29.1725Z" fill="#6EA8FE"/>
<path d="M61.3299 26.8323C60.685 29.6242 56.7967 31.1742 54.5846 32.0831C54.1331 32.2744 53.691 32.4658 53.2547 32.6801C50.6898 30.7875 48.5639 28.3633 47.0224 25.5732C46.589 24.83 46.2612 24.0302 46.0484 23.1966C45.9227 22.5409 45.8364 21.8783 45.79 21.2123C47.6424 20.2313 49.6659 19.6155 51.7507 19.3983C55.5031 18.9543 62.545 21.5663 61.3299 26.8323Z" fill="#0A58CA"/>
<path d="M80.5935 20.518C80.5375 20.7303 80.5248 20.9516 80.556 21.1689C80.5872 21.3862 80.6618 21.595 80.7753 21.7829C83.0716 25.5985 85.3678 28.6716 85.8481 35.2331C85.8481 35.2331 86.5312 45.8284 83.284 48.7331C83.284 48.7331 81.8641 50.0917 81.5618 48.7331C81.5618 48.7331 80.5495 38.4804 64.4854 32.4987C64.4854 32.4987 47.9084 26.3467 49.6172 16.6049C49.6172 16.6049 50.2544 9.54773 58.3831 7.11946C63.2894 5.6556 68.588 6.67743 72.7347 9.68742C75.9105 12.0033 78.6041 14.9166 80.6643 18.2639C80.7821 18.4532 80.8598 18.6646 80.8928 18.8851C80.9257 19.1056 80.9131 19.3305 80.8557 19.546L80.5935 20.518Z" fill="#6EA8FE"/>
<path d="M83.2842 48.733C83.2842 48.733 82.2203 49.7491 81.74 49.1425C83.4889 45.0207 83.0106 37.5905 83.0106 37.5905C82.5283 31.029 80.2359 27.9558 77.9378 24.1422C77.8245 23.9538 77.7503 23.7446 77.7194 23.527C77.6885 23.3094 77.7016 23.0878 77.7579 22.8754L78.0162 21.9072C78.0737 21.6917 78.0864 21.4668 78.0534 21.2463C78.0205 21.0258 77.9427 20.8143 77.8249 20.6251C75.7642 17.2758 73.0693 14.3611 69.8914 12.0448C65.7485 9.0348 60.45 8.01297 55.5398 9.47874C54.3964 9.81395 53.2992 10.2903 52.2734 10.8967C53.5766 9.40411 55.5111 7.97279 58.3757 7.11744C63.282 5.65358 68.5806 6.6735 72.7272 9.68349C75.9051 12.001 78.6011 14.9154 80.6646 18.2638C80.7824 18.4534 80.8601 18.6652 80.893 18.886C80.9259 19.1068 80.9133 19.332 80.8559 19.5478L80.5957 20.5179C80.5391 20.73 80.5258 20.9514 80.5567 21.1687C80.5876 21.386 80.6621 21.5949 80.7755 21.7828C83.0718 25.5945 85.368 28.6715 85.8483 35.2311C85.8483 35.2311 86.5315 45.8263 83.2842 48.733Z" fill="#0A58CA"/>
<path d="M28.0943 74.3858L22.0667 64.7512L32.616 58.1533C32.7534 58.0673 32.9065 58.0093 33.0663 57.9825C33.2262 57.9556 33.3898 57.9606 33.5478 57.997C33.7058 58.0334 33.855 58.1006 33.987 58.1948C34.119 58.2889 34.2312 58.4081 34.3171 58.5456L39.034 66.0887C39.1199 66.2262 39.178 66.3792 39.2048 66.5391C39.2316 66.699 39.2267 66.8626 39.1902 67.0205C39.1538 67.1785 39.0866 67.3278 38.9925 67.4598C38.8984 67.5918 38.7792 67.7039 38.6417 67.7898L28.0943 74.3858Z" fill="#0A58CA"/>
<path d="M28.0939 74.3856L26.6836 72.118L38.2777 64.8657L39.0431 66.0885C39.1291 66.2259 39.1871 66.379 39.214 66.5388C39.2408 66.6987 39.2358 66.8623 39.1994 67.0203C39.163 67.1783 39.0958 67.3275 39.0016 67.4595C38.9075 67.5915 38.7883 67.7037 38.6508 67.7896L28.0939 74.3856Z" fill="#0A58CA"/>
<path d="M38.5786 65.3636L34.7668 59.2709L37.3693 57.6425C37.5145 57.5515 37.6762 57.4901 37.8452 57.4616C38.0142 57.4331 38.1872 57.4382 38.3542 57.4766C38.5212 57.515 38.6791 57.5859 38.8187 57.6853C38.9583 57.7847 39.077 57.9106 39.168 58.0558L41.5963 61.9384C41.7792 62.2318 41.8382 62.5858 41.7604 62.9227C41.6825 63.2596 41.4741 63.5518 41.181 63.7352L38.5786 65.3636Z" fill="#0A58CA"/>
<path d="M59.5332 49.6038C59.5332 49.2703 59.4008 48.9506 59.165 48.7148C58.9293 48.479 58.6095 48.3466 58.2761 48.3466C57.9426 48.3466 57.6229 48.479 57.3871 48.7148C57.1513 48.9506 57.0189 49.2703 57.0189 49.6038C57.0189 49.9494 56.8816 50.2808 56.6372 50.5252C56.3928 50.7696 56.0614 50.9069 55.7157 50.9069C55.3701 50.9069 55.0387 50.7696 54.7943 50.5252C54.5499 50.2808 54.4126 49.9494 54.4126 49.6038C54.4126 49.2703 54.2802 48.9506 54.0444 48.7148C53.8086 48.479 53.4889 48.3466 53.1554 48.3466C52.822 48.3466 52.5022 48.479 52.2665 48.7148C52.0307 48.9506 51.8982 49.2703 51.8982 49.6038C51.8611 50.1278 51.9323 50.6539 52.1073 51.1492C52.2823 51.6446 52.5575 52.0986 52.9156 52.483C53.2737 52.8674 53.7072 53.1739 54.1889 53.3835C54.6706 53.5931 55.1904 53.7013 55.7157 53.7013C56.2411 53.7013 56.7608 53.5931 57.2426 53.3835C57.7243 53.1739 58.1578 52.8674 58.5159 52.483C58.874 52.0986 59.1491 51.6446 59.3242 51.1492C59.4992 50.6539 59.5704 50.1278 59.5332 49.6038Z" fill="#0A58CA"/>
<path d="M71.1873 49.6038C71.1873 49.2703 71.0548 48.9506 70.819 48.7148C70.5833 48.479 70.2635 48.3466 69.9301 48.3466C69.5966 48.3466 69.2769 48.479 69.0411 48.7148C68.8053 48.9506 68.6729 49.2703 68.6729 49.6038C68.6729 49.9494 68.5356 50.2808 68.2912 50.5252C68.0468 50.7696 67.7154 50.9069 67.3697 50.9069C67.0241 50.9069 66.6927 50.7696 66.4483 50.5252C66.2039 50.2808 66.0666 49.9494 66.0666 49.6038C66.0666 49.4387 66.0341 49.2752 65.9709 49.1226C65.9077 48.9701 65.8151 48.8315 65.6984 48.7148C65.5817 48.598 65.4431 48.5054 65.2905 48.4423C65.138 48.3791 64.9745 48.3466 64.8094 48.3466C64.6443 48.3466 64.4809 48.3791 64.3283 48.4423C64.1758 48.5054 64.0372 48.598 63.9205 48.7148C63.8037 48.8315 63.7111 48.9701 63.6479 49.1226C63.5848 49.2752 63.5522 49.4387 63.5522 49.6038C63.5522 50.6162 63.9544 51.5872 64.6704 52.3031C65.3863 53.0191 66.3573 53.4213 67.3697 53.4213C68.3822 53.4213 69.3532 53.0191 70.0691 52.3031C70.785 51.5872 71.1873 50.6162 71.1873 49.6038Z" fill="#0A58CA"/>
<path d="M81.4435 78.6188L79.1836 77.662C79.0307 77.5904 78.865 77.5503 78.6963 77.5442C78.5276 77.538 78.3594 77.5659 78.2018 77.6261C78.0441 77.6864 77.9002 77.7777 77.7786 77.8948C77.6569 78.0119 77.5602 78.1522 77.494 78.3075C77.4278 78.4628 77.3935 78.6298 77.3933 78.7986C77.393 78.9674 77.4267 79.1345 77.4924 79.29C77.5581 79.4454 77.6545 79.5861 77.7757 79.7035C77.897 79.821 78.0406 79.9128 78.1981 79.9735L80.458 80.9303C81.3662 81.3158 82.1408 81.9601 82.6853 82.7829C83.2297 83.6057 83.5199 84.5706 83.5196 85.5572V88.5136H39.5619V85.5591C39.5616 84.5725 39.8518 83.6076 40.3963 82.7848C40.9407 81.962 41.7154 81.3177 42.6236 80.9322L53.9421 76.1082C54.7078 75.7831 55.3607 75.2397 55.8194 74.5458C56.2781 73.8519 56.5224 73.0383 56.5216 72.2065V71.6324C59.7625 72.8227 63.321 72.8227 66.5619 71.6324V72.2065C66.5611 73.0383 66.8053 73.8519 67.2641 74.5458C67.7228 75.2397 68.3757 75.7831 69.1413 76.1082L72.8153 77.6754C73.1221 77.8061 73.4683 77.8095 73.7776 77.685C74.0869 77.5605 74.3341 77.3182 74.4648 77.0114C74.5955 76.7046 74.5989 76.3585 74.4744 76.0491C74.3499 75.7398 74.1076 75.4926 73.8008 75.3619L70.1211 73.7966C69.8089 73.6644 69.5427 73.443 69.3558 73.1601C69.1689 72.8773 69.0697 72.5455 69.0705 72.2065V70.536C73.7568 68.1938 77.4059 64.6346 79.9318 59.9369C81.5151 56.9236 82.6173 53.6811 83.1982 50.3271C83.541 50.1518 83.8573 49.9289 84.1377 49.6651C87.7199 46.4293 87.1764 36.3047 87.1018 35.149C86.6464 28.9376 84.6639 25.7038 82.5591 22.2747C82.3275 21.892 82.0941 21.5208 81.8606 21.1266C81.8348 21.0833 81.8178 21.0353 81.8105 20.9854C81.8033 20.9354 81.806 20.8846 81.8185 20.8357L82.0788 19.8656C82.1797 19.4846 82.202 19.0872 82.1444 18.6974C82.0869 18.3075 81.9506 17.9335 81.7439 17.598C79.5978 14.1085 76.7895 11.0727 73.4774 8.66181C68.973 5.40114 63.196 4.36975 58.0256 5.91397C49.4874 8.4628 48.4579 15.6443 48.3718 16.4384C48.2351 17.2332 48.201 18.0422 48.2704 18.8456C46.7507 19.2918 45.3088 19.9695 43.9956 20.8549C41.6706 22.4316 41.0353 23.7921 40.9473 26.3678V26.3926C40.9473 26.3926 40.9473 26.4175 40.9473 26.4386C40.9473 26.6892 40.9377 26.9476 40.9377 27.2212C39.826 26.9495 38.764 27.3781 37.9871 28.4248C37.3499 29.284 36.2362 31.5439 35.953 37.0357C35.8268 39.2666 35.9914 41.5045 36.4428 43.6929C36.8447 45.5911 37.6599 47.3458 39.0089 49.2135C39.2171 49.5035 39.4939 49.7375 39.8145 49.8947C40.1258 51.75 40.5826 53.578 41.1808 55.3616C41.2936 55.6699 41.5225 55.9218 41.8186 56.0635C42.1146 56.2053 42.4544 56.2256 42.7653 56.1201C43.0761 56.0147 43.3334 55.7918 43.4821 55.4992C43.6308 55.2066 43.6592 54.8674 43.5612 54.5541C43.0059 52.8966 42.5823 51.1979 42.2944 49.4737C42.569 49.2013 42.767 48.8614 42.8685 48.4882C43.9286 44.5712 45.0499 41.588 47.3596 38.823C49.4389 36.3648 52.0848 34.4492 55.0692 33.2412L55.1821 33.1952C56.29 32.7417 57.7309 32.1485 59.0532 31.3295C60.6643 32.225 62.3349 33.0088 64.0533 33.6755C68.4085 35.2963 74.3481 38.3044 77.9149 43.4193C80.0294 46.456 80.3145 48.8384 80.3164 48.8556C80.3219 48.9064 80.3302 48.9569 80.3413 49.0068C80.4044 49.3224 80.5349 49.6207 80.724 49.8813C80.1892 52.9724 79.1749 55.9609 77.7178 58.739C75.1173 63.5898 71.1946 67.0878 66.0567 69.1353C63.1608 70.2969 59.9284 70.2969 57.0325 69.1353C52.2353 67.2217 48.4924 64.0414 45.9034 59.6805C45.8191 59.5385 45.7076 59.4145 45.5754 59.3156C45.4432 59.2167 45.2928 59.1448 45.1328 59.104C44.9727 59.0633 44.8063 59.0544 44.6428 59.0779C44.4794 59.1015 44.3222 59.157 44.1802 59.2413C44.0383 59.3256 43.9143 59.4371 43.8154 59.5693C43.7165 59.7015 43.6446 59.8519 43.6038 60.0119C43.563 60.172 43.5541 60.3384 43.5777 60.5019C43.6012 60.6653 43.6568 60.8225 43.7411 60.9645C46.1567 65.0867 49.7252 68.4125 54.0072 70.5322V72.2084C54.008 72.5474 53.9088 72.8792 53.7219 73.162C53.5351 73.4449 53.2688 73.6663 52.9567 73.7986L41.6381 78.6207C40.2755 79.1985 39.1133 80.1649 38.2965 81.3992C37.4798 82.6335 37.0447 84.081 37.0456 85.5611V89.7708C37.0456 90.1043 37.1781 90.424 37.4138 90.6598C37.6496 90.8956 37.9694 91.028 38.3028 91.028H84.7749C85.1084 91.028 85.4281 90.8956 85.6639 90.6598C85.8997 90.424 86.0321 90.1043 86.0321 89.7708V85.5611C86.034 84.0811 85.5997 82.6333 84.7837 81.3986C83.9676 80.1639 82.8058 79.1971 81.4435 78.6188ZM54.2215 30.8684L54.1086 30.9143C50.7456 32.279 47.7643 34.4401 45.4212 37.2118C42.7422 40.4265 41.5118 43.9723 40.6373 47.1315C39.8122 45.9351 39.2274 44.5899 38.9151 43.1705C38.5066 41.1929 38.358 39.1704 38.4731 37.1544C38.6453 33.7884 39.25 30.9507 40.0135 29.9231C40.1704 29.7088 40.2527 29.659 40.3178 29.659C40.344 29.6611 40.3697 29.6669 40.3943 29.6763C40.6002 29.7468 40.8144 29.7906 41.0315 29.8064C41.1119 31.3372 41.2726 33.0804 41.5941 34.3989C41.6612 34.6716 41.8177 34.914 42.0386 35.0874C42.2595 35.2608 42.5322 35.3552 42.813 35.3556C42.9136 35.3558 43.0139 35.3436 43.1115 35.3193C43.272 35.2807 43.4234 35.2108 43.5568 35.1135C43.6902 35.0163 43.8031 34.8936 43.889 34.7526C43.9748 34.6116 44.032 34.455 44.0572 34.2919C44.0824 34.1287 44.0751 33.9622 44.0358 33.8018C43.4119 31.232 43.4617 26.4692 43.4617 26.4213V26.3984C43.5268 24.5174 43.9267 23.9356 45.4173 22.9157C46.4676 22.2085 47.6167 21.6605 48.8273 21.2892C50.1304 24.8637 53.3872 27.7436 56.5599 29.8255C55.7141 30.2561 54.8721 30.6024 54.2215 30.8684ZM64.9239 31.3181C62.1797 30.2338 59.5665 28.8434 57.1339 27.1733C52.3501 23.8208 50.2452 20.3382 50.8556 16.8211C50.8619 16.7882 50.8664 16.755 50.869 16.7216C50.892 16.5035 51.399 12.0488 56.0815 9.43679C57.7673 11.9741 60.674 13.3921 63.5251 14.6263C66.5619 15.9371 69.1739 17.2077 70.3928 19.4982C70.4641 19.6541 70.5666 19.7937 70.6938 19.9086C70.8211 20.0234 70.9705 20.111 71.1329 20.166C71.2953 20.2209 71.4672 20.2421 71.638 20.2282C71.8089 20.2143 71.9751 20.1656 72.1265 20.0851C72.2778 20.0046 72.4111 19.894 72.5181 19.7601C72.6252 19.6261 72.7037 19.4718 72.7488 19.3064C72.794 19.141 72.8049 18.9681 72.7808 18.7984C72.7567 18.6287 72.6981 18.4657 72.6087 18.3194C70.8865 15.0664 67.2029 13.4763 64.5182 12.3186C62.0842 11.268 59.8071 10.1678 58.4485 8.41879C58.5461 8.38626 58.6399 8.35373 58.7432 8.32311C60.0902 7.92261 61.4883 7.72021 62.8937 7.72226C66.1634 7.73332 69.3462 8.77596 71.9887 10.7016C75.037 12.9215 77.6211 15.7168 79.595 18.9298C79.6219 18.9738 79.6397 19.0227 79.6473 19.0736C79.6548 19.1246 79.652 19.1766 79.639 19.2264L79.3807 20.1947C79.2814 20.5702 79.2583 20.9617 79.3129 21.3463C79.3674 21.7308 79.4985 22.1005 79.6983 22.4335C79.9356 22.8277 80.171 23.2123 80.4063 23.595C82.4328 26.894 84.1837 29.7413 84.5931 35.3154C84.8323 39.0583 84.4975 45.5682 82.6279 47.6176C81.9391 44.7549 78.7856 36.4789 64.9239 31.3181Z" fill="#0A58CA"/>
<path d="M40.4129 67.3018C40.5294 66.7934 40.4833 66.2613 40.2809 65.7806L41.848 64.8027C42.4221 64.4417 42.8299 63.868 42.9823 63.2072C43.1347 62.5464 43.0193 61.8521 42.6613 61.2761L42.0872 60.348L46.3927 57.34C46.6599 57.1469 46.8406 56.8566 46.8958 56.5315C46.9511 56.2065 46.8764 55.8728 46.688 55.6023C46.4995 55.3318 46.2123 55.1461 45.8883 55.0853C45.5643 55.0245 45.2293 55.0934 44.9556 55.2772L40.7458 58.2106L40.233 57.3897C40.0547 57.1043 39.822 56.8569 39.548 56.6616C39.274 56.4662 38.9642 56.3268 38.6363 56.2513C38.3085 56.1758 37.9689 56.1656 37.6371 56.2214C37.3053 56.2772 36.9877 56.3978 36.7025 56.5765L35.1354 57.5562C34.746 57.1125 34.2116 56.8217 33.6275 56.7359C33.0435 56.65 32.448 56.7746 31.9474 57.0874L26.6833 60.3863L21.4115 63.6852L12.5231 69.2364L11.6027 67.7649C11.5147 67.6249 11.4001 67.5036 11.2653 67.408C11.1304 67.3123 10.9781 67.2442 10.8169 67.2074C10.6558 67.1706 10.4889 67.1659 10.326 67.1936C10.163 67.2213 10.0071 67.2808 9.86712 67.3688C9.72715 67.4567 9.60588 67.5714 9.51022 67.7062C9.41456 67.841 9.3464 67.9934 9.30962 68.1545C9.27284 68.3157 9.26816 68.4825 9.29585 68.6455C9.32354 68.8085 9.38307 68.9644 9.47102 69.1044L11.0573 71.6398L12.1595 73.4022L9.54756 75.0363L9.33898 74.7034C9.01976 74.1924 8.51106 73.8288 7.92431 73.6922C7.33755 73.5555 6.72055 73.657 6.20844 73.9743L4.07676 75.3138C3.82307 75.472 3.60308 75.6787 3.42938 75.922C3.25568 76.1653 3.13168 76.4406 3.0645 76.7319C2.99731 77.0232 2.98824 77.3249 3.03783 77.6198C3.08741 77.9146 3.19466 78.1968 3.35344 78.4501L7.59384 85.2278C7.75129 85.4821 7.95773 85.7026 8.20115 85.8763C8.44457 86.0501 8.72012 86.1738 9.01177 86.2401C9.1813 86.2787 9.35455 86.2986 9.52842 86.2994C9.95381 86.2989 10.3704 86.1782 10.7301 85.9511L12.8618 84.6117C13.3731 84.2908 13.7363 83.7803 13.8719 83.192C14.0075 82.6038 13.9044 81.9858 13.5851 81.4735L13.3765 81.1405L15.9885 79.5063L18.6675 83.8042C18.7804 83.9854 18.9378 84.1348 19.1246 84.2383C19.3115 84.3418 19.5216 84.3959 19.7352 84.3954C19.9597 84.3952 20.18 84.3349 20.3733 84.2208C20.5665 84.1066 20.7257 83.9428 20.8343 83.7464C20.9429 83.5499 20.9969 83.328 20.9907 83.1036C20.9845 82.8792 20.9184 82.6606 20.7991 82.4704L19.8787 81.0008L28.7537 75.4516L39.3126 68.8537C39.5895 68.6807 39.8294 68.4544 40.0182 68.188C40.2071 67.9216 40.3413 67.6204 40.4129 67.3018ZM9.60496 83.6874L5.60759 77.3134L7.32977 76.2323L8.07988 77.4302L10.5675 81.4084L11.3176 82.6082L9.60496 83.6874ZM12.0485 79.0107L10.9004 77.1623L13.5124 75.5281L14.6605 77.3766L12.0485 79.0107ZM18.5546 78.8711L14.9648 73.1305L13.8626 71.3662L17.0008 69.401L18.3709 71.5901C18.4588 71.73 18.5735 71.8513 18.7083 71.947C18.8431 72.0426 18.9955 72.1108 19.1566 72.1476C19.3178 72.1843 19.4846 72.189 19.6476 72.1613C19.8106 72.1336 19.9665 72.0741 20.1064 71.9862C20.2464 71.8982 20.3677 71.7835 20.4633 71.6487C20.559 71.5139 20.6272 71.3616 20.6639 71.2004C20.7007 71.0392 20.7054 70.8724 20.6777 70.7094C20.65 70.5465 20.5905 70.3905 20.5026 70.2506L19.1325 68.0615L21.6679 66.4771L26.3599 73.9801L18.5546 78.8711ZM28.4954 72.6521L23.8034 65.1491L26.9397 63.1896L28.3098 65.3787C28.4226 65.5597 28.5796 65.709 28.7661 65.8124C28.9526 65.9159 29.1624 65.9701 29.3756 65.97C29.6001 65.9698 29.8204 65.9095 30.0137 65.7953C30.2069 65.6812 30.3661 65.5174 30.4747 65.3209C30.5833 65.1245 30.6373 64.9025 30.6311 64.6782C30.6249 64.4538 30.5588 64.2352 30.4395 64.045L29.0714 61.8502L33.2601 59.2305L33.8648 60.1969L37.512 66.0274L37.9521 66.7316L28.4954 72.6521ZM36.4997 59.6687L38.0305 58.712C38.0358 58.7089 38.0417 58.7073 38.0478 58.7073C38.0538 58.7073 38.0597 58.7089 38.065 58.712C38.0713 58.713 38.0773 58.7155 38.0826 58.7191C38.0879 58.7227 38.0923 58.7275 38.0956 58.733L40.5296 62.6156C40.5323 62.6209 40.5337 62.6268 40.5337 62.6328C40.5337 62.6388 40.5323 62.6447 40.5296 62.65C40.5289 62.6562 40.5265 62.6621 40.5228 62.6671C40.5192 62.6721 40.5142 62.6761 40.5086 62.6787L38.9777 63.6355L36.4997 59.6687Z" fill="#0A58CA"/>
</svg>
