<svg width="99" height="99" viewBox="0 0 99 99" fill="none" xmlns="http://www.w3.org/2000/svg">
<g clip-path="url(#clip0_117_3546)">
<path d="M39.2698 29.1725C37.8902 31.0306 37.5476 35.6939 37.4826 37.0907C37.3635 39.2153 37.5211 41.3463 37.9514 43.4303C38.3685 45.3955 39.2296 46.9837 40.307 48.4763C40.4082 48.6175 40.5478 48.7266 40.7093 48.7907C40.8707 48.8549 41.0472 48.8713 41.2177 48.838C41.3882 48.8048 41.5456 48.7232 41.6711 48.6031C41.7967 48.483 41.8851 48.3294 41.9258 48.1605C42.9247 44.4636 44.09 41.0996 46.6637 38.0188C48.8733 35.4043 51.6871 33.3682 54.8613 32.0868C57.0734 31.1779 60.9617 29.628 61.6065 26.8361C62.8216 21.5777 55.7798 18.9657 52.0293 19.4078C49.5417 19.7024 47.0694 20.4659 44.9817 21.8954C42.7926 23.3937 42.4386 24.471 42.4712 27.4676C42.4712 28.2904 41.8454 28.763 41.0647 28.4971C40.3261 28.2349 39.7386 28.543 39.2698 29.1725Z" fill="#6EA8FE"/>
<path d="M61.6067 26.8323C60.9619 29.6242 57.0736 31.1742 54.8615 32.0831C54.4099 32.2744 53.9679 32.4658 53.5316 32.6801C50.9667 30.7875 48.8407 28.3633 47.2992 25.5732C46.8659 24.83 46.5381 24.0302 46.3252 23.1966C46.1995 22.5409 46.1133 21.8783 46.0669 21.2123C47.9192 20.2313 49.9428 19.6155 52.0276 19.3983C55.78 18.9543 62.8218 21.5663 61.6067 26.8323Z" fill="#0A58CA"/>
<path d="M80.8699 20.5178C80.8139 20.73 80.8012 20.9514 80.8324 21.1687C80.8636 21.386 80.9382 21.5947 81.0517 21.7826C83.3479 25.5982 85.6442 28.6714 86.1245 35.2329C86.1245 35.2329 86.8076 45.8281 83.5603 48.7329C83.5603 48.7329 82.1405 50.0915 81.8382 48.7329C81.8382 48.7329 80.8259 38.4801 64.7618 32.4984C64.7618 32.4984 48.1848 26.3464 49.8936 16.6046C49.8936 16.6046 50.5308 9.54749 58.6595 7.11921C63.5658 5.65536 68.8644 6.67719 73.011 9.68718C76.1869 12.0031 78.8804 14.9163 80.9407 18.2636C81.0585 18.4529 81.1362 18.6644 81.1691 18.8849C81.202 19.1054 81.1894 19.3303 81.1321 19.5457L80.8699 20.5178Z" fill="#6EA8FE"/>
<path d="M83.5603 48.7329C83.5603 48.7329 82.4964 49.749 82.0161 49.1424C83.7651 45.0206 83.2867 37.5904 83.2867 37.5904C82.8045 31.0289 80.5121 27.9557 78.2139 24.142C78.1007 23.9537 78.0264 23.7445 77.9955 23.5269C77.9646 23.3093 77.9777 23.0877 78.034 22.8753L78.2924 21.907C78.3498 21.6916 78.3625 21.4667 78.3296 21.2462C78.2967 21.0256 78.2189 20.8142 78.101 20.625C76.0403 17.2756 73.3454 14.361 70.1675 12.0447C66.0247 9.03468 60.7261 8.01285 55.816 9.47862C54.6725 9.81383 53.5753 10.2901 52.5496 10.8965C53.8527 9.40399 55.7873 7.97267 58.6518 7.11732C63.5581 5.65346 68.8567 6.67338 73.0033 9.68337C76.1812 12.0008 78.8772 14.9152 80.9407 18.2637C81.0585 18.4533 81.1362 18.665 81.1692 18.8859C81.2021 19.1067 81.1894 19.3319 81.132 19.5476L80.8718 20.5178C80.8152 20.7299 80.8019 20.9512 80.8328 21.1686C80.8637 21.3859 80.9382 21.5948 81.0517 21.7827C83.3479 25.5944 85.6442 28.6714 86.1245 35.231C86.1245 35.231 86.8076 45.8262 83.5603 48.7329Z" fill="#0A58CA"/>
<path d="M22.663 20.0801L26.6619 12.5495L34.9061 16.9288C35.0135 16.9859 35.1086 17.0635 35.186 17.1573C35.2634 17.2512 35.3216 17.3593 35.3572 17.4756C35.3928 17.5919 35.4051 17.7141 35.3935 17.8352C35.3818 17.9563 35.3465 18.0738 35.2894 18.1812L32.1577 24.0756C32.1006 24.183 32.023 24.2782 31.9292 24.3556C31.8353 24.433 31.7272 24.4911 31.6109 24.5267C31.4946 24.5623 31.3724 24.5746 31.2513 24.563C31.1302 24.5514 31.0127 24.516 30.9053 24.4589L22.663 20.0801Z" fill="#0A58CA"/>
<path d="M22.6625 20.0804L23.6067 18.3134L32.6681 23.126L32.1608 24.0821C32.1037 24.1895 32.0261 24.2846 31.9322 24.362C31.8384 24.4394 31.7303 24.4975 31.6139 24.5331C31.4976 24.5687 31.3755 24.5811 31.2544 24.5694C31.1333 24.5578 31.0157 24.5224 30.9083 24.4653L22.6625 20.0804Z" fill="#0A58CA"/>
<path d="M32.457 23.5079L34.9857 18.7457L37.02 19.8257C37.1336 19.886 37.2342 19.968 37.3161 20.0671C37.398 20.1663 37.4596 20.2805 37.4973 20.4035C37.535 20.5264 37.5481 20.6555 37.5359 20.7835C37.5238 20.9115 37.4865 21.0359 37.4262 21.1495L35.8145 24.1837C35.6925 24.4126 35.4846 24.5838 35.2365 24.6595C34.9884 24.7353 34.7204 24.7096 34.4913 24.5879L32.457 23.5079Z" fill="#0A58CA"/>
<path d="M59.8091 49.6034C59.8091 49.27 59.6767 48.9502 59.4409 48.7144C59.2051 48.4786 58.8854 48.3462 58.5519 48.3462C58.2185 48.3462 57.8987 48.4786 57.663 48.7144C57.4272 48.9502 57.2947 49.27 57.2947 49.6034C57.2947 49.949 57.1574 50.2804 56.9131 50.5248C56.6687 50.7692 56.3372 50.9065 55.9916 50.9065C55.646 50.9065 55.3146 50.7692 55.0702 50.5248C54.8258 50.2804 54.6885 49.949 54.6885 49.6034C54.6885 49.27 54.5561 48.9502 54.3203 48.7144C54.0845 48.4786 53.7647 48.3462 53.4313 48.3462C53.0979 48.3462 52.7781 48.4786 52.5423 48.7144C52.3066 48.9502 52.1741 49.27 52.1741 49.6034C52.137 50.1274 52.2082 50.6535 52.3832 51.1489C52.5582 51.6442 52.8334 52.0982 53.1915 52.4826C53.5496 52.867 53.983 53.1735 54.4648 53.3831C54.9465 53.5927 55.4663 53.7009 55.9916 53.7009C56.517 53.7009 57.0367 53.5927 57.5185 53.3831C58.0002 53.1735 58.4336 52.867 58.7918 52.4826C59.1499 52.0982 59.425 51.6442 59.6001 51.1489C59.7751 50.6535 59.8463 50.1274 59.8091 49.6034Z" fill="#0A58CA"/>
<path d="M71.4634 49.6035C71.4634 49.2701 71.3309 48.9503 71.0951 48.7145C70.8594 48.4788 70.5396 48.3463 70.2062 48.3463C69.8728 48.3463 69.553 48.4788 69.3172 48.7145C69.0814 48.9503 68.949 49.2701 68.949 49.6035C68.949 49.9491 68.8117 50.2806 68.5673 50.525C68.3229 50.7693 67.9915 50.9066 67.6459 50.9066C67.3003 50.9066 66.9688 50.7693 66.7244 50.525C66.48 50.2806 66.3428 49.9491 66.3428 49.6035C66.3428 49.4384 66.3102 49.2749 66.2471 49.1224C66.1839 48.9699 66.0913 48.8313 65.9745 48.7145C65.8578 48.5978 65.7192 48.5052 65.5667 48.442C65.4141 48.3788 65.2507 48.3463 65.0856 48.3463C64.9205 48.3463 64.757 48.3788 64.6045 48.442C64.4519 48.5052 64.3133 48.5978 64.1966 48.7145C64.0798 48.8313 63.9872 48.9699 63.9241 49.1224C63.8609 49.2749 63.8284 49.4384 63.8284 49.6035C63.8284 50.616 64.2306 51.587 64.9465 52.3029C65.6624 53.0188 66.6334 53.421 67.6459 53.421C68.6583 53.421 69.6293 53.0188 70.3453 52.3029C71.0612 51.587 71.4634 50.616 71.4634 49.6035Z" fill="#0A58CA"/>
<path d="M81.7201 78.6186L79.4602 77.6619C79.3073 77.5903 79.1416 77.5502 78.9729 77.5441C78.8043 77.5379 78.6361 77.5658 78.4784 77.626C78.3207 77.6863 78.1768 77.7776 78.0552 77.8947C77.9336 78.0117 77.8368 78.1521 77.7706 78.3074C77.7044 78.4626 77.6701 78.6297 77.6699 78.7985C77.6696 78.9672 77.7033 79.1344 77.769 79.2898C77.8348 79.4453 77.9311 79.586 78.0523 79.7034C78.1736 79.8209 78.3172 79.9127 78.4747 79.9734L80.7346 80.9302C81.6428 81.3157 82.4174 81.96 82.9619 82.7828C83.5064 83.6056 83.7965 84.5705 83.7963 85.5571V88.5135H39.8385V85.559C39.8382 84.5724 40.1284 83.6075 40.6729 82.7847C41.2173 81.9619 41.992 81.3176 42.9002 80.9321L54.2187 76.1081C54.9844 75.7829 55.6373 75.2395 56.096 74.5457C56.5547 73.8518 56.799 73.0382 56.7982 72.2064V71.6323C60.0391 72.8226 63.5976 72.8226 66.8385 71.6323V72.2064C66.8377 73.0382 67.082 73.8518 67.5407 74.5457C67.9994 75.2395 68.6523 75.7829 69.418 76.1081L73.0919 77.6753C73.3987 77.8059 73.7449 77.8094 74.0542 77.6849C74.3635 77.5604 74.6107 77.318 74.7414 77.0113C74.8721 76.7045 74.8756 76.3583 74.751 76.049C74.6265 75.7397 74.3842 75.4925 74.0774 75.3618L70.3977 73.7965C70.0855 73.6643 69.8193 73.4429 69.6324 73.16C69.4455 72.8771 69.3463 72.5454 69.3472 72.2064V70.5359C74.0334 68.1937 77.6825 64.6345 80.2084 59.9368C81.7917 56.9235 82.8939 53.681 83.4748 50.327C83.8176 50.1517 84.1339 49.9288 84.4143 49.6649C87.9965 46.4291 87.453 36.3046 87.3784 35.1488C86.923 28.9375 84.9406 25.7036 82.8357 22.2746C82.6041 21.8919 82.3707 21.5206 82.1372 21.1265C82.1114 21.0831 82.0944 21.0351 82.0872 20.9852C82.0799 20.9353 82.0826 20.8845 82.0951 20.8356L82.3554 19.8654C82.4563 19.4845 82.4786 19.0871 82.4211 18.6972C82.3635 18.3074 82.2272 17.9334 82.0205 17.5979C79.8744 14.1084 77.0661 11.0726 73.754 8.66168C69.2496 5.40102 63.4726 4.36962 58.3022 5.91385C49.764 8.46268 48.7345 15.6442 48.6484 16.4383C48.5117 17.2331 48.4776 18.0421 48.547 18.8455C47.0273 19.2917 45.5855 19.9694 44.2722 20.8547C41.9472 22.4315 41.3119 23.792 41.2239 26.3676V26.3925C41.2239 26.3925 41.2239 26.4174 41.2239 26.4384C41.2239 26.6891 41.2144 26.9474 41.2144 27.2211C40.1026 26.9493 39.0406 27.378 38.2637 28.4247C37.6265 29.2839 36.5128 31.5437 36.2296 37.0356C36.1034 39.2665 36.268 41.5044 36.7195 43.6928C37.1213 45.591 37.9365 47.3457 39.2855 49.2133C39.4937 49.5034 39.7705 49.7374 40.0911 49.8945C40.4024 51.7499 40.8592 53.5779 41.4574 55.3615C41.5702 55.6698 41.7991 55.9217 42.0952 56.0634C42.3912 56.2052 42.731 56.2255 43.0419 56.12C43.3527 56.0146 43.61 55.7917 43.7587 55.4991C43.9075 55.2065 43.9358 54.8673 43.8378 54.554C43.2825 52.8965 42.8589 51.1978 42.5711 49.4736C42.8456 49.2012 43.0436 48.8613 43.1451 48.4881C44.2052 44.5711 45.3265 41.5879 47.6362 38.8228C49.7155 36.3647 52.3614 34.4491 55.3458 33.2411L55.4587 33.1951C56.5667 32.7416 58.0075 32.1484 59.3298 31.3294C60.9409 32.2248 62.6115 33.0087 64.3299 33.6754C68.6851 35.2962 74.6247 38.3043 78.1915 43.4191C80.306 46.4559 80.5911 48.8383 80.593 48.8555C80.5985 48.9063 80.6068 48.9568 80.6179 49.0067C80.681 49.3223 80.8115 49.6206 81.0006 49.8812C80.4658 52.9722 79.4515 55.9608 77.9944 58.7389C75.3939 63.5897 71.4712 67.0877 66.3333 69.1351C63.4374 70.2967 60.205 70.2967 57.3091 69.1351C52.5119 67.2216 48.769 64.0413 46.18 59.6804C46.0957 59.5384 45.9842 59.4144 45.852 59.3155C45.7198 59.2166 45.5694 59.1447 45.4094 59.1039C45.2494 59.0631 45.0829 59.0543 44.9194 59.0778C44.756 59.1014 44.5988 59.1569 44.4568 59.2412C44.3149 59.3255 44.1909 59.437 44.092 59.5692C43.9931 59.7014 43.9212 59.8518 43.8804 60.0118C43.8396 60.1718 43.8307 60.3383 43.8543 60.5017C43.8779 60.6652 43.9334 60.8224 44.0177 60.9643C46.4333 65.0866 50.0018 68.4124 54.2838 70.532V72.2083C54.2847 72.5473 54.1854 72.8791 53.9985 73.1619C53.8117 73.4448 53.5455 73.6662 53.2333 73.7984L41.9147 78.6205C40.5521 79.1984 39.3899 80.1647 38.5731 81.399C37.7564 82.6333 37.3213 84.0809 37.3222 85.5609V89.7707C37.3222 90.1041 37.4547 90.4239 37.6904 90.6597C37.9262 90.8955 38.246 91.0279 38.5794 91.0279H85.0515C85.385 91.0279 85.7047 90.8955 85.9405 90.6597C86.1763 90.4239 86.3087 90.1041 86.3087 89.7707V85.5609C86.3106 84.0809 85.8764 82.6332 85.0603 81.3985C84.2442 80.1638 83.0824 79.1969 81.7201 78.6186ZM54.4981 30.8683L54.3852 30.9142C51.0222 32.2789 48.0409 34.44 45.6978 37.2116C43.0188 40.4264 41.7884 43.9722 40.9139 47.1314C40.0889 45.935 39.504 44.5898 39.1917 43.1704C38.7832 41.1928 38.6346 39.1703 38.7497 37.1542C38.9219 33.7883 39.5266 30.9505 40.2901 29.923C40.447 29.7087 40.5293 29.6589 40.5944 29.6589C40.6206 29.661 40.6463 29.6668 40.6709 29.6761C40.8768 29.7467 41.091 29.7904 41.3081 29.8063C41.3885 31.3371 41.5492 33.0803 41.8707 34.3987C41.9378 34.6714 42.0943 34.9138 42.3152 35.0872C42.5361 35.2607 42.8088 35.3551 43.0896 35.3555C43.1902 35.3557 43.2905 35.3435 43.3881 35.3192C43.5487 35.2806 43.7 35.2106 43.8334 35.1134C43.9668 35.0161 44.0797 34.8935 44.1656 34.7525C44.2515 34.6115 44.3086 34.4549 44.3338 34.2917C44.359 34.1286 44.3517 33.9621 44.3124 33.8017C43.6886 31.2318 43.7383 26.469 43.7383 26.4212V26.3982C43.8034 24.5172 44.2033 23.9355 45.6939 22.9156C46.7442 22.2084 47.8933 21.6603 49.1039 21.2891C50.407 24.8636 53.6638 27.7435 56.8365 29.8254C55.9907 30.2559 55.1487 30.6023 54.4981 30.8683ZM65.2005 31.3179C62.4563 30.2337 59.8431 28.8433 57.4105 27.1732C52.6267 23.8207 50.5218 20.3381 51.1322 16.821C51.1386 16.7881 51.143 16.7549 51.1456 16.7215C51.1686 16.5034 51.6757 12.0486 56.3581 9.43667C58.0439 11.974 60.9506 13.3919 63.8017 14.6262C66.8385 15.9369 69.4505 17.2075 70.6694 19.498C70.7407 19.6539 70.8432 19.7936 70.9704 19.9084C71.0977 20.0233 71.2471 20.1109 71.4095 20.1659C71.5719 20.2208 71.7438 20.242 71.9147 20.2281C72.0855 20.2142 72.2517 20.1655 72.4031 20.085C72.5544 20.0045 72.6877 19.8939 72.7947 19.7599C72.9018 19.626 72.9803 19.4716 73.0254 19.3063C73.0706 19.1409 73.0815 18.968 73.0574 18.7983C73.0333 18.6286 72.9747 18.4656 72.8853 18.3193C71.1631 15.0663 67.4795 13.4761 64.7949 12.3185C62.3608 11.2679 60.0837 10.1676 58.7251 8.41867C58.8227 8.38614 58.9165 8.35361 59.0198 8.32299C60.3668 7.92249 61.765 7.72009 63.1703 7.72214C66.44 7.7332 69.6228 8.77583 72.2653 10.7015C75.3136 12.9213 77.8977 15.7167 79.8716 18.9297C79.8985 18.9736 79.9163 19.0226 79.9239 19.0735C79.9314 19.1245 79.9286 19.1765 79.9156 19.2263L79.6573 20.1946C79.558 20.57 79.5349 20.9616 79.5895 21.3461C79.644 21.7307 79.7751 22.1004 79.9749 22.4334C80.2122 22.8276 80.4476 23.2122 80.6829 23.5949C82.7094 26.8939 84.4603 29.7412 84.8698 35.3153C85.109 39.0582 84.7741 45.568 82.9046 47.6174C82.2157 44.7548 79.0622 36.4788 65.2005 31.3179Z" fill="#0A58CA"/>
<path d="M31.8863 25.4272C32.2603 25.3122 32.5888 25.0826 32.8252 24.7708L34.0484 25.4222C34.4984 25.6598 35.024 25.7095 35.5106 25.5607C35.9971 25.4118 36.4049 25.0763 36.6449 24.6277L37.0325 23.9065L40.6021 25.5756C40.8278 25.6768 41.0842 25.6852 41.3161 25.5992C41.548 25.5132 41.7368 25.3395 41.8419 25.1156C41.947 24.8916 41.9599 24.6354 41.8778 24.4021C41.7958 24.1687 41.6254 23.9769 41.4033 23.868L37.9181 22.2332L38.2591 21.592C38.3777 21.3692 38.4511 21.1251 38.4752 20.8738C38.4994 20.6225 38.4738 20.3689 38.3998 20.1276C38.3259 19.8862 38.2051 19.6618 38.0444 19.4671C37.8837 19.2724 37.6862 19.1114 37.4631 18.9931L36.2387 18.3423C36.3809 17.9229 36.3693 17.4666 36.2061 17.0549C36.0428 16.6432 35.7384 16.3031 35.3474 16.0951L31.2292 13.9123L27.1082 11.7246L20.1671 8.03183L20.7779 6.8818C20.8359 6.77215 20.8717 6.65216 20.8832 6.52868C20.8948 6.4052 20.882 6.28065 20.8454 6.16213C20.8088 6.04362 20.7493 5.93347 20.6702 5.83797C20.5911 5.74247 20.4939 5.66349 20.3842 5.60554C20.2746 5.54759 20.1546 5.51181 20.0311 5.50023C19.9076 5.48865 19.7831 5.50151 19.6646 5.53807C19.5461 5.57463 19.4359 5.63417 19.3404 5.7133C19.2449 5.79242 19.1659 5.88959 19.108 5.99924L18.0557 7.98105L17.3241 9.3583L15.2825 8.27421L15.4205 8.01379C15.6328 7.61471 15.6782 7.1478 15.5469 6.7153C15.4155 6.2828 15.1182 5.91997 14.7199 5.70626L13.0499 4.8237C12.852 4.71821 12.6352 4.65281 12.4119 4.63123C12.1886 4.60965 11.9633 4.63233 11.7488 4.69796C11.5343 4.76359 11.3349 4.87088 11.1619 5.0137C10.989 5.15651 10.8459 5.33204 10.7408 5.53024L7.92775 10.8279C7.82159 11.0256 7.7558 11.2424 7.7342 11.4658C7.71261 11.6891 7.73564 11.9145 7.80195 12.1289C7.84047 12.2535 7.89254 12.3736 7.95722 12.4869C8.1171 12.7631 8.35182 12.9885 8.63429 13.137L10.3043 14.0196C10.7046 14.2314 11.1725 14.2759 11.6056 14.1433C12.0386 14.0108 12.4015 13.7119 12.6146 13.3123L12.7527 13.0519L14.7943 14.136L13.0068 17.4888C12.9314 17.6302 12.8933 17.7885 12.8962 17.9487C12.8991 18.1089 12.9428 18.2658 13.0232 18.4044C13.1075 18.5502 13.2293 18.6707 13.376 18.7534C13.5227 18.8362 13.6888 18.8782 13.8572 18.875C14.0256 18.8719 14.19 18.8237 14.3335 18.7355C14.4769 18.6473 14.5942 18.5224 14.673 18.3735L15.2826 17.2242L22.2174 20.909L30.4652 25.2945C30.6816 25.4095 30.9185 25.4804 31.1625 25.5032C31.4064 25.526 31.6524 25.5002 31.8863 25.4272ZM9.68304 11.5568L12.3249 6.56846L13.6734 7.28186L13.1765 8.21859L11.5249 11.3272L11.0267 12.2647L9.68304 11.5568ZM13.6383 11.3901L14.4087 9.95072L16.4503 11.0348L15.6799 12.4742L13.6383 11.3901ZM16.1697 15.5649L18.5529 11.079L19.2858 9.70108L21.7399 11.0029L20.8315 12.7143C20.7736 12.8239 20.7378 12.9439 20.7262 13.0674C20.7146 13.1909 20.7275 13.3154 20.764 13.4339C20.8006 13.5525 20.8601 13.6626 20.9393 13.7581C21.0184 13.8536 21.1156 13.9326 21.2252 13.9905C21.3349 14.0485 21.4548 14.0843 21.5783 14.0958C21.7018 14.1074 21.8264 14.0946 21.9449 14.058C22.0634 14.0214 22.1735 13.9619 22.269 13.8828C22.3645 13.8037 22.4435 13.7065 22.5015 13.5968L23.4098 11.8854L25.3904 12.9385L22.2755 18.8016L16.1697 15.5649ZM23.9395 19.691L27.0543 13.8278L29.504 15.1305L28.5956 16.8419C28.5203 16.9831 28.4823 17.1411 28.485 17.3011C28.4877 17.4611 28.5312 17.6177 28.6113 17.7563C28.6956 17.902 28.8174 18.0225 28.9641 18.1053C29.1108 18.1881 29.2769 18.2301 29.4453 18.2269C29.6137 18.2238 29.7781 18.1756 29.9216 18.0874C30.065 17.9992 30.1823 17.8742 30.2611 17.7254L31.1739 16.0131L34.4473 17.752L34.0463 18.5074L31.6261 23.0643L31.3337 23.6144L23.9395 19.691ZM35.3779 20.0213L36.5738 20.657C36.5777 20.6593 36.581 20.6625 36.5832 20.6665C36.5855 20.6704 36.5867 20.6749 36.5867 20.6794C36.5884 20.6839 36.5891 20.6887 36.5887 20.6935C36.5883 20.6983 36.5869 20.703 36.5845 20.7072L34.9749 23.7451C34.9725 23.7489 34.9692 23.752 34.9653 23.7542C34.9614 23.7565 34.957 23.7578 34.9525 23.758C34.9482 23.7599 34.9435 23.7606 34.9389 23.76C34.9342 23.7595 34.9298 23.7578 34.926 23.7551L33.7301 23.1194L35.3779 20.0213Z" fill="#0A58CA"/>
</g>
<defs>
<clipPath id="clip0_117_3546">
<rect width="97.7817" height="97.7817" fill="white" transform="translate(0.744629 0.617065)"/>
</clipPath>
</defs>
</svg>
