<svg width="99" height="99" viewBox="0 0 99 99" fill="none" xmlns="http://www.w3.org/2000/svg">
<path d="M27.7805 29.1446C26.4025 31.001 26.0676 35.6516 25.9949 37.0525C25.8766 39.1748 26.0342 41.3036 26.4638 43.3854C26.8791 45.3489 27.7403 46.9355 28.8158 48.4264C28.9168 48.5677 29.0563 48.6771 29.2177 48.7414C29.3791 48.8056 29.5555 48.8221 29.726 48.7888C29.8965 48.7555 30.0538 48.6739 30.1792 48.5536C30.3046 48.4333 30.3927 48.2796 30.433 48.1106C31.4321 44.4188 32.5937 41.0581 35.1659 37.9788C37.3718 35.3646 40.1822 33.3281 43.3533 32.0459C45.5618 31.1388 49.4469 29.5905 50.09 26.802C51.3033 21.5486 44.2719 18.94 40.5208 19.384C38.0328 19.6769 35.5659 20.4386 33.4818 21.872C31.2943 23.3667 30.9421 24.4423 30.9727 27.4355C30.9727 28.2585 30.3488 28.7293 29.5699 28.4652C28.835 28.2087 28.2494 28.5168 27.7805 29.1446Z" fill="#6EA8FE"/>
<path d="M50.0897 26.802C49.4467 29.5905 45.5616 31.1388 43.3531 32.0459C42.904 32.2297 42.4612 32.4287 42.0249 32.643C39.4635 30.752 37.34 28.3308 35.7992 25.5447C35.3678 24.806 35.0406 24.0113 34.827 23.183C34.7012 22.5279 34.615 21.8658 34.5686 21.2003C36.4182 20.2181 38.4397 19.6015 40.5225 19.384C44.2736 18.94 51.3031 21.5486 50.0897 26.802Z" fill="#0A58CA"/>
<path d="M69.3319 20.4982C69.2759 20.7105 69.2631 20.9319 69.2944 21.1492C69.3256 21.3665 69.4002 21.5753 69.5137 21.7633C71.8103 25.5737 74.0973 28.6416 74.5796 35.1964C74.5796 35.1964 75.2629 45.778 72.0189 48.6812C72.0189 48.6812 70.6008 50.0381 70.2965 48.6812C70.2965 48.6812 69.286 38.4384 53.2405 32.4654C53.2405 32.4654 36.6839 26.3201 38.3911 16.5902C38.3911 16.5902 39.0265 9.54156 47.1468 7.11674C52.0443 5.65458 57.338 6.67465 61.4737 9.68127C64.6494 11.9939 67.3428 14.9044 69.4027 18.2495C69.52 18.4387 69.5975 18.6498 69.6304 18.8699C69.6633 19.0901 69.651 19.3146 69.5941 19.5298L69.3319 20.4982Z" fill="#6EA8FE"/>
<path d="M72.0243 48.6807C72.0243 48.6807 70.9621 49.697 70.4818 49.0903C72.2157 44.9736 71.7449 37.5537 71.7449 37.5537C71.2626 31.0008 68.9737 27.931 66.679 24.1225C66.5658 23.9344 66.4915 23.7255 66.4606 23.5082C66.4297 23.2909 66.4428 23.0696 66.4991 22.8574L66.7575 21.889C66.8143 21.6738 66.8267 21.4493 66.7938 21.2291C66.7609 21.009 66.6834 20.7979 66.5661 20.6087C64.5068 17.2638 61.8148 14.3528 58.6409 12.0386C54.5032 9.03387 49.2096 8.01954 44.3121 9.47597C43.173 9.81121 42.0801 10.2869 41.0586 10.8922C42.36 9.39941 44.2853 7.96978 47.1446 7.12387C52.044 5.65979 57.3357 6.67986 61.4715 9.68649C64.6461 11.9985 67.3399 14.9069 69.4024 18.249C69.5193 18.4386 69.5966 18.6501 69.6295 18.8705C69.6624 19.0909 69.6502 19.3156 69.5938 19.5312L69.3354 20.4996C69.2789 20.7113 69.2655 20.9323 69.2961 21.1493C69.3266 21.3662 69.4005 21.5749 69.5134 21.7627C71.81 25.5713 74.1066 28.641 74.5812 35.1959C74.5793 35.1959 75.2606 45.7832 72.0243 48.6807Z" fill="#0A58CA"/>
<path d="M48.2931 49.5498C48.2931 49.2168 48.1609 48.8975 47.9254 48.662C47.69 48.4266 47.3706 48.2943 47.0377 48.2943C46.7047 48.2943 46.3854 48.4266 46.1499 48.662C45.9145 48.8975 45.7822 49.2168 45.7822 49.5498C45.7822 49.8949 45.6451 50.226 45.401 50.47C45.157 50.7141 44.826 50.8512 44.4808 50.8512C44.1356 50.8512 43.8046 50.7141 43.5606 50.47C43.3165 50.226 43.1794 49.8949 43.1794 49.5498C43.1794 49.2168 43.0471 48.8975 42.8117 48.662C42.5762 48.4266 42.2569 48.2943 41.9239 48.2943C41.591 48.2943 41.2716 48.4266 41.0362 48.662C40.8007 48.8975 40.6685 49.2168 40.6685 49.5498C40.6685 50.5609 41.0701 51.5306 41.7851 52.2455C42.5 52.9605 43.4697 53.3621 44.4808 53.3621C45.4919 53.3621 46.4616 52.9605 47.1765 52.2455C47.8915 51.5306 48.2931 50.5609 48.2931 49.5498Z" fill="#0A58CA"/>
<path d="M59.9345 49.5497C59.9345 49.2167 59.8022 48.8974 59.5668 48.6619C59.3313 48.4265 59.012 48.2942 58.679 48.2942C58.3461 48.2942 58.0267 48.4265 57.7913 48.6619C57.5558 48.8974 57.4236 49.2167 57.4236 49.5497C57.4236 49.8948 57.2864 50.2258 57.0424 50.4699C56.7983 50.7139 56.4673 50.8511 56.1222 50.8511C55.777 50.8511 55.446 50.7139 55.2019 50.4699C54.9579 50.2258 54.8208 49.8948 54.8208 49.5497C54.8208 49.2167 54.6885 48.8974 54.453 48.6619C54.2176 48.4265 53.8983 48.2942 53.5653 48.2942C53.2323 48.2942 52.913 48.4265 52.6775 48.6619C52.4421 48.8974 52.3098 49.2167 52.3098 49.5497C52.3098 50.0503 52.4084 50.546 52.6 51.0086C52.7916 51.4711 53.0724 51.8914 53.4264 52.2454C53.7804 52.5994 54.2007 52.8802 54.6632 53.0718C55.1258 53.2634 55.6215 53.362 56.1222 53.362C56.6228 53.362 57.1185 53.2634 57.5811 53.0718C58.0436 52.8802 58.4639 52.5994 58.8179 52.2454C59.1719 51.8914 59.4527 51.4711 59.6443 51.0086C59.8359 50.546 59.9345 50.0503 59.9345 49.5497Z" fill="#0A58CA"/>
<path d="M70.1809 78.5328L67.9225 77.5759C67.6162 77.4452 67.2705 77.4416 66.9615 77.5658C66.6525 77.6899 66.4054 77.9318 66.2747 78.2381C66.144 78.5444 66.1404 78.8901 66.2645 79.1992C66.3887 79.5082 66.6306 79.7552 66.9369 79.8859L69.1952 80.8428C70.1036 81.2268 70.8785 81.87 71.4232 82.6921C71.9678 83.5142 72.258 84.4786 72.2574 85.4647V88.4178H28.3484V85.4647C28.3483 84.4787 28.6386 83.5145 29.1832 82.6925C29.7278 81.8705 30.5025 81.2272 31.4105 80.8428L42.7079 76.0219C43.4728 75.6969 44.1251 75.1539 44.5836 74.4607C45.042 73.7674 45.2862 72.9546 45.2858 72.1234V71.5493C48.5231 72.7371 52.0769 72.7371 55.3142 71.5493V72.1234C55.3134 72.9544 55.5572 73.7672 56.0153 74.4605C56.4734 75.1538 57.1255 75.6968 57.8903 76.0219L61.5591 77.5855C61.7107 77.6502 61.8737 77.6844 62.0386 77.6862C62.2035 77.6879 62.3671 77.6572 62.5201 77.5957C62.6731 77.5342 62.8125 77.4432 62.9304 77.3278C63.0482 77.2124 63.1421 77.075 63.2069 76.9233C63.2716 76.7716 63.3058 76.6087 63.3075 76.4438C63.3093 76.2789 63.2785 76.1153 63.217 75.9623C63.1556 75.8093 63.0645 75.6699 62.9492 75.552C62.8338 75.4342 62.6964 75.3402 62.5447 75.2755L58.874 73.7253C58.5624 73.5929 58.2967 73.3716 58.1102 73.0891C57.9237 72.8066 57.8245 72.4754 57.8252 72.1368V70.468C62.5064 68.1293 66.1484 64.5753 68.6689 59.873C70.2471 56.8622 71.3448 53.6232 71.9224 50.2733C72.265 50.0991 72.5808 49.8768 72.8602 49.613C76.4391 46.3806 75.8955 36.2679 75.8209 35.1138C75.3654 28.9245 73.3789 25.6902 71.2736 22.2644C71.044 21.8816 70.8105 21.5104 70.577 21.1161C70.5512 21.0728 70.5342 21.0248 70.5269 20.9749C70.5197 20.9249 70.5224 20.8741 70.5349 20.8252L70.7952 19.8568C70.8956 19.4761 70.9177 19.079 70.8601 18.6895C70.8026 18.3 70.6665 17.9262 70.4603 17.5908C68.3166 14.1061 65.5118 11.0745 62.204 8.66667C57.7199 5.40168 51.9536 4.37204 46.7881 5.91459C38.262 8.4638 37.2343 15.633 37.1482 16.4177C37.0105 17.2112 36.9765 18.0192 37.0468 18.8214C35.5286 19.2666 34.0883 19.9438 32.777 20.829C30.4536 22.4175 29.824 23.7744 29.7283 26.3428C29.7283 26.3428 29.7283 26.36 29.7283 26.3677V26.4155C29.7283 26.6643 29.7168 26.9227 29.7168 27.1963C28.6087 26.9246 27.5465 27.3533 26.7714 28.3963C26.1322 29.2556 25.0222 31.5139 24.7389 36.9894C24.6142 39.2208 24.7801 41.459 25.2327 43.6476C25.6346 45.5442 26.4499 47.2973 27.7953 49.1613C28.004 49.451 28.2807 49.685 28.601 49.8427C28.912 51.6957 29.3682 53.5214 29.9656 55.3028C30.1149 55.7449 32.2986 60.5314 32.5167 60.8988C34.9294 65.017 38.4947 68.3388 42.7729 70.4546V72.1273C42.7734 72.466 42.674 72.7974 42.4871 73.0799C42.3002 73.3625 42.0342 73.5836 41.7222 73.7157L30.4173 78.5328C29.0574 79.1108 27.8977 80.0764 27.0829 81.3091C26.2682 82.5418 25.8343 83.9871 25.8356 85.4647V89.6751C25.8356 90.0081 25.9678 90.3275 26.2033 90.5629C26.4387 90.7983 26.7581 90.9306 27.091 90.9306H73.5071C73.8401 90.9306 74.1594 90.7983 74.3948 90.5629C74.6303 90.3275 74.7626 90.0081 74.7626 89.6751V85.4647C74.764 83.987 74.3303 82.5416 73.5155 81.3089C72.7007 80.0761 71.5409 79.1106 70.1809 78.5328ZM39.6285 16.8081C39.6285 16.7775 39.6381 16.7392 39.6419 16.7086C39.663 16.4904 40.172 12.0407 44.8475 9.43603C46.5317 11.9699 49.4292 13.3862 52.2827 14.6187C55.3162 15.9277 57.9247 17.1947 59.1419 19.4836C59.3026 19.7695 59.5687 19.9812 59.8834 20.0733C60.1982 20.1655 60.5364 20.1309 60.826 19.9769C61.1155 19.8229 61.3332 19.5617 61.4327 19.2492C61.5321 18.9367 61.5054 18.5977 61.3581 18.3047C59.6357 15.0512 55.9592 13.4665 53.2779 12.3106C50.8512 11.2618 48.568 10.1614 47.2111 8.41596C47.3087 8.38342 47.4025 8.35089 47.5058 8.32027C48.8511 7.91973 50.2475 7.71729 51.6512 7.71933C54.9161 7.73028 58.0942 8.77178 60.7323 10.6953C63.7761 12.912 66.3571 15.7024 68.3302 18.9095C68.3571 18.9534 68.3749 19.0023 68.3825 19.0533C68.39 19.1043 68.3872 19.1563 68.3742 19.2061L68.1139 20.1745C68.0154 20.5496 67.9929 20.9406 68.0478 21.3245C68.1027 21.7084 68.2338 22.0774 68.4335 22.4099C68.6689 22.8041 68.9062 23.1888 69.1397 23.5696C71.1646 26.8633 72.9119 29.7092 73.3214 35.2765C73.5607 39.0161 73.2257 45.5155 71.3598 47.5633C70.6708 44.7079 67.5206 36.444 53.6741 31.2958C50.9341 30.2114 48.3245 28.8229 45.8944 27.1562C41.1213 23.7993 39.0123 20.3295 39.6285 16.8081ZM27.6901 43.1251C27.2831 41.1502 27.1351 39.1307 27.2499 37.1176C27.4221 33.755 28.0269 30.9207 28.7809 29.8948C28.9398 29.6805 29.0202 29.6307 29.0852 29.6307C29.1114 29.6328 29.1372 29.6386 29.1618 29.648C29.3677 29.7187 29.5819 29.7625 29.7991 29.7781C29.8795 31.3092 30.0383 33.0488 30.3598 34.3713C30.4264 34.6444 30.5827 34.8872 30.8038 35.0607C31.0249 35.2343 31.2979 35.3285 31.579 35.3282C31.679 35.3283 31.7786 35.3161 31.8756 35.2918C32.1992 35.2134 32.4783 35.0096 32.6517 34.7254C32.825 34.4411 32.8784 34.0997 32.8 33.7761C32.1761 31.2096 32.2258 26.4519 32.2258 26.404V26.3811C32.2909 24.5017 32.689 23.9218 34.1779 22.9036C35.2273 22.1973 36.3752 21.6498 37.5845 21.2788C38.8859 24.8481 42.1395 27.7246 45.3088 29.8049C44.4648 30.2298 43.6227 30.5704 42.9739 30.8403L42.861 30.8862C39.5083 32.2497 36.5366 34.4065 34.2009 37.1712C31.5215 40.3807 30.2948 43.9232 29.4163 47.0791C28.59 45.8855 28.0036 44.5426 27.6901 43.1251ZM34.8784 59.9458C33.7492 58.0319 32.6928 55.3526 31.6785 52.2426C31.445 51.3297 31.244 50.39 31.0814 49.4293C31.3511 49.1558 31.5451 48.8168 31.644 48.4456C32.7043 44.5337 33.8239 41.5558 36.13 38.7922C38.207 36.3364 40.85 34.4224 43.8313 33.2153L43.9442 33.1694C45.0504 32.7158 46.4877 32.1245 47.8101 31.3072C49.4199 32.2008 51.0888 32.9835 52.8052 33.6498C57.1534 35.2689 63.0863 38.2736 66.6498 43.3835C68.7551 46.415 69.046 48.7958 69.0479 48.813C69.0533 48.8632 69.0616 48.9131 69.0727 48.9623C69.1363 49.2779 69.2668 49.5761 69.4555 49.8369C68.9228 52.9248 67.9096 55.9103 66.4527 58.6845C63.8576 63.5284 59.9457 67.0231 54.8071 69.069C51.9141 70.2279 48.6859 70.2279 45.793 69.069C41.1251 67.1992 37.4563 64.1275 34.8784 59.9458Z" fill="#0A58CA"/>
<path d="M75.7157 58.2977L69.6297 63.7272L62.8624 68.0908L60.2443 66.9176L60.0605 63.9148L67.4001 57.9513L65.5054 56.0719L65.0116 53.4366L66.1714 50.0855L68.4737 42.6541L71.7579 38.2848L79.817 35.7413L82.0447 45.653L79.4304 52.738L75.7157 58.2977Z" fill="#0A58CA"/>
<path d="M67.0862 45.0314C65.9647 50.7288 64.5447 51.902 63.9169 54.2579C63.5188 55.7488 64.5714 57.2722 65.7063 58.3191L60.1409 62.3381C59.7383 62.6312 59.3977 63.0011 59.1387 63.4264C58.8797 63.8518 58.7075 64.3242 58.6319 64.8164C58.5563 65.3086 58.5788 65.8109 58.6983 66.2944C58.8177 66.7778 59.0316 67.2329 59.3277 67.6333C59.6238 68.0337 59.9963 68.3715 60.4235 68.6273C60.8508 68.8831 61.3245 69.0519 61.8172 69.1238C62.31 69.1957 62.8121 69.1694 63.2947 69.0463C63.7773 68.9233 64.2307 68.7059 64.6289 68.4069C74.3588 61.0405 75.3367 60.6405 77.0075 58.0052L83.7059 47.4198C83.783 47.2989 83.8354 47.164 83.86 47.0227C83.8847 46.8815 83.8811 46.7367 83.8494 46.5969L81.2504 35.0259C81.219 34.8857 81.1602 34.7531 81.0775 34.6357C80.9948 34.5182 80.8897 34.4183 80.7683 34.3415C80.6469 34.2647 80.5115 34.2126 80.37 34.1882C80.2284 34.1637 80.0834 34.1675 79.9433 34.1991C76.6171 34.9512 75.4018 35.1139 73.5549 36.023C70.9158 37.4756 67.0824 41.2401 67.0862 45.0314ZM67.3867 56.8837C66.7765 56.4119 66.35 55.7421 66.1806 54.9896C66.0111 54.2371 66.1094 53.4491 66.4585 52.7613C70.91 44.1816 68.5063 43.8831 71.0727 40.6793C72.5918 38.856 74.6826 37.5995 77.0056 37.1139L79.3519 36.5876L81.6122 46.6486L75.1568 56.8493C73.775 59.0272 73.1971 59.1899 63.3045 66.6729C63.137 66.7968 62.9467 66.8865 62.7445 66.9369C62.5424 66.9873 62.3322 66.9973 62.1262 66.9665C61.9201 66.9357 61.7221 66.8645 61.5436 66.7572C61.365 66.6498 61.2093 66.5084 61.0854 66.3409C60.9615 66.1734 60.8718 65.9831 60.8214 65.7809C60.7711 65.5787 60.761 65.3686 60.7918 65.1626C60.8227 64.9565 60.8938 64.7585 61.0011 64.58C61.1085 64.4014 61.2499 64.2457 61.4175 64.1218C70.5388 57.5306 68.5178 59.6664 75.0248 49.3853C75.1015 49.2641 75.1537 49.1289 75.1782 48.9874C75.2028 48.846 75.1992 48.7012 75.1677 48.5611C75.1363 48.4211 75.0775 48.2886 74.9949 48.1713C74.9122 48.0539 74.8073 47.954 74.686 47.8772C74.5648 47.8005 74.4296 47.7483 74.2881 47.7238C74.1467 47.6992 74.0019 47.7028 73.8618 47.7343C73.7218 47.7657 73.5893 47.8245 73.472 47.9071C73.3546 47.9898 73.2547 48.0947 73.1779 48.216C68.6288 55.4024 68.5426 55.6914 67.3829 56.8837H67.3867Z" fill="#0A58CA"/>
<path d="M25.1064 58.2977L31.1943 63.7272L37.9615 68.0908L40.5778 66.9176L40.7634 63.9148L33.4239 57.9513L35.3166 56.0719L35.8104 53.4366L34.6506 50.0855L32.3483 42.6541L29.0642 38.2848L21.005 35.7413L18.7773 45.653L21.3916 52.738L25.1064 58.2977Z" fill="#0A58CA"/>
<path d="M27.2694 36.0226C25.4206 35.1231 24.1977 34.9604 20.8791 34.216C20.5962 34.1525 20.2996 34.204 20.0546 34.359C19.8095 34.514 19.6359 34.7599 19.572 35.0427L16.973 46.6042C16.91 46.8867 16.9616 47.1826 17.1165 47.4271L23.8149 58.0125C25.4838 60.6478 26.4618 61.0478 36.1917 68.4141C36.9964 69.0095 38.0047 69.2608 38.9948 69.1128C39.9849 68.9647 40.8756 68.4294 41.471 67.6247C42.0663 66.8199 42.3177 65.8116 42.1696 64.8215C42.0215 63.8315 41.4863 62.9408 40.6815 62.3454L35.1142 58.3264C36.2491 57.2795 37.3017 55.7561 36.9036 54.2652C36.2778 51.9074 34.8596 50.7285 33.7477 45.031C33.7477 41.2397 29.9066 37.4752 27.2694 36.0226ZM33.4357 56.8833C32.276 55.691 32.1918 55.402 27.6426 48.2156C27.4818 47.9834 27.2375 47.8223 26.9607 47.766C26.6839 47.7097 26.3961 47.7625 26.1573 47.9135C25.9186 48.0645 25.7475 48.3019 25.6798 48.5762C25.612 48.8504 25.6529 49.1402 25.7938 49.3849C32.3008 59.666 30.2818 57.5302 39.4011 64.1214C39.7394 64.3717 39.9645 64.746 40.0268 65.1622C40.089 65.5783 39.9834 66.0022 39.7332 66.3405C39.483 66.6788 39.1086 66.9038 38.6924 66.9661C38.2763 67.0284 37.8524 66.9228 37.5141 66.6725C27.6235 59.1799 27.0493 59.0192 25.6637 56.8412L19.2026 46.6405L21.4628 36.5795L23.8111 37.1058C26.1341 37.5915 28.2248 38.848 29.744 40.6713C32.3104 43.875 29.9066 44.1736 34.3582 52.7533C34.7103 53.4412 34.8108 54.2306 34.6424 54.9848C34.4739 55.739 34.0471 56.4106 33.4357 56.8833Z" fill="#0A58CA"/>
</svg>
